<?xml version="1.0" encoding="UTF-8" standalone="no"?>
<!DOCTYPE svg PUBLIC "-//W3C//DTD SVG 1.1//EN"
 "http://www.w3.org/Graphics/SVG/1.1/DTD/svg11.dtd">
<!-- Generated by graphviz version 2.40.1 (20161225.0304)
 -->
<!-- Title: snakemake_dag Pages: 1 -->
<svg width="565pt" height="769pt"
 viewBox="0.00 0.00 565.49 769.00" xmlns="http://www.w3.org/2000/svg" xmlns:xlink="http://www.w3.org/1999/xlink">
<g id="graph0" class="graph" transform="scale(1 1) rotate(0) translate(4 765)">
<title>snakemake_dag</title>
<polygon fill="#ffffff" stroke="transparent" points="-4,4 -4,-765 561.4941,-765 561.4941,4 -4,4"/>
<!-- 0 -->
<g id="node1" class="node">
<title>0</title>
<path fill="none" stroke="#68d856" stroke-width="2" stroke-dasharray="5,2" d="M201.9941,-36C201.9941,-36 169.9941,-36 169.9941,-36 163.9941,-36 157.9941,-30 157.9941,-24 157.9941,-24 157.9941,-12 157.9941,-12 157.9941,-6 163.9941,0 169.9941,0 169.9941,0 201.9941,0 201.9941,0 207.9941,0 213.9941,-6 213.9941,-12 213.9941,-12 213.9941,-24 213.9941,-24 213.9941,-30 207.9941,-36 201.9941,-36"/>
<text text-anchor="middle" x="185.9941" y="-15.5" font-family="sans" font-size="10.00" fill="#000000">annovar</text>
</g>
<!-- 1 -->
<g id="node2" class="node">
<title>1</title>
<path fill="none" stroke="#56d863" stroke-width="2" stroke-dasharray="5,2" d="M225.9941,-108C225.9941,-108 145.9941,-108 145.9941,-108 139.9941,-108 133.9941,-102 133.9941,-96 133.9941,-96 133.9941,-84 133.9941,-84 133.9941,-78 139.9941,-72 145.9941,-72 145.9941,-72 225.9941,-72 225.9941,-72 231.9941,-72 237.9941,-78 237.9941,-84 237.9941,-84 237.9941,-96 237.9941,-96 237.9941,-102 231.9941,-108 225.9941,-108"/>
<text text-anchor="middle" x="185.9941" y="-87.5" font-family="sans" font-size="10.00" fill="#000000">prepare_input_file</text>
</g>
<!-- 1&#45;&gt;0 -->
<g id="edge1" class="edge">
<title>1&#45;&gt;0</title>
<path fill="none" stroke="#c0c0c0" stroke-width="2" d="M185.9941,-71.8314C185.9941,-64.131 185.9941,-54.9743 185.9941,-46.4166"/>
<polygon fill="#c0c0c0" stroke="#c0c0c0" stroke-width="2" points="189.4942,-46.4132 185.9941,-36.4133 182.4942,-46.4133 189.4942,-46.4132"/>
</g>
<!-- 2 -->
<g id="node3" class="node">
<title>2</title>
<path fill="none" stroke="#56b1d8" stroke-width="2" stroke-dasharray="5,2" d="M211.9941,-180C211.9941,-180 159.9941,-180 159.9941,-180 153.9941,-180 147.9941,-174 147.9941,-168 147.9941,-168 147.9941,-156 147.9941,-156 147.9941,-150 153.9941,-144 159.9941,-144 159.9941,-144 211.9941,-144 211.9941,-144 217.9941,-144 223.9941,-150 223.9941,-156 223.9941,-156 223.9941,-168 223.9941,-168 223.9941,-174 217.9941,-180 211.9941,-180"/>
<text text-anchor="middle" x="185.9941" y="-159.5" font-family="sans" font-size="10.00" fill="#000000">merge_calls</text>
</g>
<!-- 2&#45;&gt;1 -->
<g id="edge2" class="edge">
<title>2&#45;&gt;1</title>
<path fill="none" stroke="#c0c0c0" stroke-width="2" d="M185.9941,-143.8314C185.9941,-136.131 185.9941,-126.9743 185.9941,-118.4166"/>
<polygon fill="#c0c0c0" stroke="#c0c0c0" stroke-width="2" points="189.4942,-118.4132 185.9941,-108.4133 182.4942,-118.4133 189.4942,-118.4132"/>
</g>
<!-- 3 -->
<g id="node4" class="node">
<title>3</title>
<path fill="none" stroke="#88d856" stroke-width="2" stroke-dasharray="5,2" d="M164.9941,-252C164.9941,-252 94.9941,-252 94.9941,-252 88.9941,-252 82.9941,-246 82.9941,-240 82.9941,-240 82.9941,-228 82.9941,-228 82.9941,-222 88.9941,-216 94.9941,-216 94.9941,-216 164.9941,-216 164.9941,-216 170.9941,-216 176.9941,-222 176.9941,-228 176.9941,-228 176.9941,-240 176.9941,-240 176.9941,-246 170.9941,-252 164.9941,-252"/>
<text text-anchor="middle" x="129.9941" y="-231.5" font-family="sans" font-size="10.00" fill="#000000">hard_filter_calls</text>
</g>
<!-- 3&#45;&gt;2 -->
<g id="edge3" class="edge">
<title>3&#45;&gt;2</title>
<path fill="none" stroke="#c0c0c0" stroke-width="2" d="M144.1252,-215.8314C150.5751,-207.5386 158.3386,-197.557 165.4192,-188.4533"/>
<polygon fill="#c0c0c0" stroke="#c0c0c0" stroke-width="2" points="168.2959,-190.4556 171.6726,-180.4133 162.7704,-186.158 168.2959,-190.4556"/>
</g>
<!-- 4 -->
<g id="node5" class="node">
<title>4</title>
<path fill="none" stroke="#88d856" stroke-width="2" stroke-dasharray="5,2" d="M276.9941,-252C276.9941,-252 206.9941,-252 206.9941,-252 200.9941,-252 194.9941,-246 194.9941,-240 194.9941,-240 194.9941,-228 194.9941,-228 194.9941,-222 200.9941,-216 206.9941,-216 206.9941,-216 276.9941,-216 276.9941,-216 282.9941,-216 288.9941,-222 288.9941,-228 288.9941,-228 288.9941,-240 288.9941,-240 288.9941,-246 282.9941,-252 276.9941,-252"/>
<text text-anchor="middle" x="241.9941" y="-231.5" font-family="sans" font-size="10.00" fill="#000000">hard_filter_calls</text>
</g>
<!-- 4&#45;&gt;2 -->
<g id="edge4" class="edge">
<title>4&#45;&gt;2</title>
<path fill="none" stroke="#c0c0c0" stroke-width="2" d="M227.8629,-215.8314C221.413,-207.5386 213.6495,-197.557 206.5689,-188.4533"/>
<polygon fill="#c0c0c0" stroke="#c0c0c0" stroke-width="2" points="209.2177,-186.158 200.3155,-180.4133 203.6922,-190.4556 209.2177,-186.158"/>
</g>
<!-- 5 -->
<g id="node6" class="node">
<title>5</title>
<path fill="none" stroke="#56d882" stroke-width="2" stroke-dasharray="5,2" d="M166.4941,-324C166.4941,-324 101.4941,-324 101.4941,-324 95.4941,-324 89.4941,-318 89.4941,-312 89.4941,-312 89.4941,-300 89.4941,-300 89.4941,-294 95.4941,-288 101.4941,-288 101.4941,-288 166.4941,-288 166.4941,-288 172.4941,-288 178.4941,-294 178.4941,-300 178.4941,-300 178.4941,-312 178.4941,-312 178.4941,-318 172.4941,-324 166.4941,-324"/>
<text text-anchor="middle" x="133.9941" y="-309" font-family="sans" font-size="10.00" fill="#000000">select_calls</text>
<text text-anchor="middle" x="133.9941" y="-298" font-family="sans" font-size="10.00" fill="#000000">vartype: indels</text>
</g>
<!-- 5&#45;&gt;3 -->
<g id="edge5" class="edge">
<title>5&#45;&gt;3</title>
<path fill="none" stroke="#c0c0c0" stroke-width="2" d="M132.9847,-287.8314C132.5569,-280.131 132.0482,-270.9743 131.5728,-262.4166"/>
<polygon fill="#c0c0c0" stroke="#c0c0c0" stroke-width="2" points="135.0664,-262.2037 131.017,-252.4133 128.0772,-262.592 135.0664,-262.2037"/>
</g>
<!-- 6 -->
<g id="node7" class="node">
<title>6</title>
<path fill="none" stroke="#56d882" stroke-width="2" stroke-dasharray="5,2" d="M269.4941,-324C269.4941,-324 210.4941,-324 210.4941,-324 204.4941,-324 198.4941,-318 198.4941,-312 198.4941,-312 198.4941,-300 198.4941,-300 198.4941,-294 204.4941,-288 210.4941,-288 210.4941,-288 269.4941,-288 269.4941,-288 275.4941,-288 281.4941,-294 281.4941,-300 281.4941,-300 281.4941,-312 281.4941,-312 281.4941,-318 275.4941,-324 269.4941,-324"/>
<text text-anchor="middle" x="239.9941" y="-309" font-family="sans" font-size="10.00" fill="#000000">select_calls</text>
<text text-anchor="middle" x="239.9941" y="-298" font-family="sans" font-size="10.00" fill="#000000">vartype: snvs</text>
</g>
<!-- 6&#45;&gt;4 -->
<g id="edge6" class="edge">
<title>6&#45;&gt;4</title>
<path fill="none" stroke="#c0c0c0" stroke-width="2" d="M240.4987,-287.8314C240.7126,-280.131 240.967,-270.9743 241.2047,-262.4166"/>
<polygon fill="#c0c0c0" stroke="#c0c0c0" stroke-width="2" points="244.7035,-262.5066 241.4826,-252.4133 237.7062,-262.3122 244.7035,-262.5066"/>
</g>
<!-- 7 -->
<g id="node8" class="node">
<title>7</title>
<path fill="none" stroke="#5692d8" stroke-width="2" stroke-dasharray="5,2" d="M220.4941,-396C220.4941,-396 151.4941,-396 151.4941,-396 145.4941,-396 139.4941,-390 139.4941,-384 139.4941,-384 139.4941,-372 139.4941,-372 139.4941,-366 145.4941,-360 151.4941,-360 151.4941,-360 220.4941,-360 220.4941,-360 226.4941,-360 232.4941,-366 232.4941,-372 232.4941,-372 232.4941,-384 232.4941,-384 232.4941,-390 226.4941,-396 220.4941,-396"/>
<text text-anchor="middle" x="185.9941" y="-375.5" font-family="sans" font-size="10.00" fill="#000000">merge_variants</text>
</g>
<!-- 7&#45;&gt;5 -->
<g id="edge7" class="edge">
<title>7&#45;&gt;5</title>
<path fill="none" stroke="#c0c0c0" stroke-width="2" d="M172.8723,-359.8314C166.9442,-351.6232 159.8211,-341.7606 153.3007,-332.7323"/>
<polygon fill="#c0c0c0" stroke="#c0c0c0" stroke-width="2" points="155.9849,-330.4708 147.2925,-324.4133 150.3101,-334.5693 155.9849,-330.4708"/>
</g>
<!-- 7&#45;&gt;6 -->
<g id="edge8" class="edge">
<title>7&#45;&gt;6</title>
<path fill="none" stroke="#c0c0c0" stroke-width="2" d="M199.6205,-359.8314C205.8401,-351.5386 213.3263,-341.557 220.1541,-332.4533"/>
<polygon fill="#c0c0c0" stroke="#c0c0c0" stroke-width="2" points="222.9841,-334.5133 226.1841,-324.4133 217.3841,-330.3133 222.9841,-334.5133"/>
</g>
<!-- 8 -->
<g id="node9" class="node">
<title>8</title>
<path fill="none" stroke="#9fd856" stroke-width="2" stroke-dasharray="5,2" d="M227.4941,-468C227.4941,-468 144.4941,-468 144.4941,-468 138.4941,-468 132.4941,-462 132.4941,-456 132.4941,-456 132.4941,-444 132.4941,-444 132.4941,-438 138.4941,-432 144.4941,-432 144.4941,-432 227.4941,-432 227.4941,-432 233.4941,-432 239.4941,-438 239.4941,-444 239.4941,-444 239.4941,-456 239.4941,-456 239.4941,-462 233.4941,-468 227.4941,-468"/>
<text text-anchor="middle" x="185.9941" y="-447.5" font-family="sans" font-size="10.00" fill="#000000">genotype_variants</text>
</g>
<!-- 8&#45;&gt;7 -->
<g id="edge9" class="edge">
<title>8&#45;&gt;7</title>
<path fill="none" stroke="#c0c0c0" stroke-width="2" d="M185.9941,-431.8314C185.9941,-424.131 185.9941,-414.9743 185.9941,-406.4166"/>
<polygon fill="#c0c0c0" stroke="#c0c0c0" stroke-width="2" points="189.4942,-406.4132 185.9941,-396.4133 182.4942,-406.4133 189.4942,-406.4132"/>
</g>
<!-- 9 -->
<g id="node10" class="node">
<title>9</title>
<path fill="none" stroke="#d89556" stroke-width="2" stroke-dasharray="5,2" d="M216.9941,-540C216.9941,-540 154.9941,-540 154.9941,-540 148.9941,-540 142.9941,-534 142.9941,-528 142.9941,-528 142.9941,-516 142.9941,-516 142.9941,-510 148.9941,-504 154.9941,-504 154.9941,-504 216.9941,-504 216.9941,-504 222.9941,-504 228.9941,-510 228.9941,-516 228.9941,-516 228.9941,-528 228.9941,-528 228.9941,-534 222.9941,-540 216.9941,-540"/>
<text text-anchor="middle" x="185.9941" y="-519.5" font-family="sans" font-size="10.00" fill="#000000">combine_calls</text>
</g>
<!-- 9&#45;&gt;8 -->
<g id="edge10" class="edge">
<title>9&#45;&gt;8</title>
<path fill="none" stroke="#c0c0c0" stroke-width="2" d="M185.9941,-503.8314C185.9941,-496.131 185.9941,-486.9743 185.9941,-478.4166"/>
<polygon fill="#c0c0c0" stroke="#c0c0c0" stroke-width="2" points="189.4942,-478.4132 185.9941,-468.4133 182.4942,-478.4133 189.4942,-478.4132"/>
</g>
<!-- 10 -->
<g id="node11" class="node">
<title>10</title>
<path fill="none" stroke="#d8d356" stroke-width="2" stroke-dasharray="5,2" d="M113.4941,-612C113.4941,-612 58.4941,-612 58.4941,-612 52.4941,-612 46.4941,-606 46.4941,-600 46.4941,-600 46.4941,-588 46.4941,-588 46.4941,-582 52.4941,-576 58.4941,-576 58.4941,-576 113.4941,-576 113.4941,-576 119.4941,-576 125.4941,-582 125.4941,-588 125.4941,-588 125.4941,-600 125.4941,-600 125.4941,-606 119.4941,-612 113.4941,-612"/>
<text text-anchor="middle" x="85.9941" y="-597" font-family="sans" font-size="10.00" fill="#000000">call_variants</text>
<text text-anchor="middle" x="85.9941" y="-586" font-family="sans" font-size="10.00" fill="#000000">contig: 21</text>
</g>
<!-- 10&#45;&gt;9 -->
<g id="edge11" class="edge">
<title>10&#45;&gt;9</title>
<path fill="none" stroke="#c0c0c0" stroke-width="2" d="M111.2283,-575.8314C123.782,-566.7927 139.1224,-555.7476 152.6332,-546.0198"/>
<polygon fill="#c0c0c0" stroke="#c0c0c0" stroke-width="2" points="154.6976,-548.8463 160.7679,-540.1628 150.6075,-543.1655 154.6976,-548.8463"/>
</g>
<!-- 11 -->
<g id="node12" class="node">
<title>11</title>
<path fill="none" stroke="#d8d356" stroke-width="2" stroke-dasharray="5,2" d="M313.4941,-612C313.4941,-612 258.4941,-612 258.4941,-612 252.4941,-612 246.4941,-606 246.4941,-600 246.4941,-600 246.4941,-588 246.4941,-588 246.4941,-582 252.4941,-576 258.4941,-576 258.4941,-576 313.4941,-576 313.4941,-576 319.4941,-576 325.4941,-582 325.4941,-588 325.4941,-588 325.4941,-600 325.4941,-600 325.4941,-606 319.4941,-612 313.4941,-612"/>
<text text-anchor="middle" x="285.9941" y="-597" font-family="sans" font-size="10.00" fill="#000000">call_variants</text>
<text text-anchor="middle" x="285.9941" y="-586" font-family="sans" font-size="10.00" fill="#000000">contig: 21</text>
</g>
<!-- 11&#45;&gt;9 -->
<g id="edge12" class="edge">
<title>11&#45;&gt;9</title>
<path fill="none" stroke="#c0c0c0" stroke-width="2" d="M260.7598,-575.8314C248.2061,-566.7927 232.8657,-555.7476 219.3549,-546.0198"/>
<polygon fill="#c0c0c0" stroke="#c0c0c0" stroke-width="2" points="221.3807,-543.1655 211.2202,-540.1628 217.2905,-548.8463 221.3807,-543.1655"/>
</g>
<!-- 12 -->
<g id="node13" class="node">
<title>12</title>
<path fill="none" stroke="#bed856" stroke-width="2" stroke-dasharray="5,2" d="M59.4941,-761C59.4941,-761 12.4941,-761 12.4941,-761 6.4941,-761 .4941,-755 .4941,-749 .4941,-749 .4941,-732 .4941,-732 .4941,-726 6.4941,-720 12.4941,-720 12.4941,-720 59.4941,-720 59.4941,-720 65.4941,-720 71.4941,-726 71.4941,-732 71.4941,-732 71.4941,-749 71.4941,-749 71.4941,-755 65.4941,-761 59.4941,-761"/>
<text text-anchor="middle" x="35.9941" y="-749" font-family="sans" font-size="10.00" fill="#000000">map_reads</text>
<text text-anchor="middle" x="35.9941" y="-738" font-family="sans" font-size="10.00" fill="#000000">sample: A</text>
<text text-anchor="middle" x="35.9941" y="-727" font-family="sans" font-size="10.00" fill="#000000">unit: 1</text>
</g>
<!-- 12&#45;&gt;10 -->
<g id="edge13" class="edge">
<title>12&#45;&gt;10</title>
<path fill="none" stroke="#c0c0c0" stroke-width="2" d="M19.7918,-719.8474C6.7655,-700.5481 -7.4731,-671.2952 4.9941,-648 12.2512,-634.4399 24.584,-623.6969 37.4669,-615.4815"/>
<polygon fill="#c0c0c0" stroke="#c0c0c0" stroke-width="2" points="39.588,-618.2937 46.4182,-610.1943 36.0279,-612.2666 39.588,-618.2937"/>
</g>
<!-- 13 -->
<g id="node14" class="node">
<title>13</title>
<path fill="none" stroke="#d87556" stroke-width="2" stroke-dasharray="5,2" d="M145.4941,-684C145.4941,-684 26.4941,-684 26.4941,-684 20.4941,-684 14.4941,-678 14.4941,-672 14.4941,-672 14.4941,-660 14.4941,-660 14.4941,-654 20.4941,-648 26.4941,-648 26.4941,-648 145.4941,-648 145.4941,-648 151.4941,-648 157.4941,-654 157.4941,-660 157.4941,-660 157.4941,-672 157.4941,-672 157.4941,-678 151.4941,-684 145.4941,-684"/>
<text text-anchor="middle" x="85.9941" y="-669" font-family="sans" font-size="10.00" fill="#000000">samtools_index</text>
<text text-anchor="middle" x="85.9941" y="-658" font-family="sans" font-size="10.00" fill="#000000">prefix: mapped/A&#45;1.sorted</text>
</g>
<!-- 12&#45;&gt;13 -->
<g id="edge19" class="edge">
<title>12&#45;&gt;13</title>
<path fill="none" stroke="#c0c0c0" stroke-width="2" d="M49.9219,-719.7476C55.5565,-711.352 62.1316,-701.5551 68.1134,-692.6423"/>
<polygon fill="#c0c0c0" stroke="#c0c0c0" stroke-width="2" points="71.174,-694.3625 73.8406,-684.1087 65.3617,-690.4615 71.174,-694.3625"/>
</g>
<!-- 13&#45;&gt;10 -->
<g id="edge14" class="edge">
<title>13&#45;&gt;10</title>
<path fill="none" stroke="#c0c0c0" stroke-width="2" d="M85.9941,-647.8314C85.9941,-640.131 85.9941,-630.9743 85.9941,-622.4166"/>
<polygon fill="#c0c0c0" stroke="#c0c0c0" stroke-width="2" points="89.4942,-622.4132 85.9941,-612.4133 82.4942,-622.4133 89.4942,-622.4132"/>
</g>
<!-- 14 -->
<g id="node15" class="node">
<title>14</title>
<path fill="none" stroke="#bed856" stroke-width="2" stroke-dasharray="5,2" d="M259.4941,-761C259.4941,-761 212.4941,-761 212.4941,-761 206.4941,-761 200.4941,-755 200.4941,-749 200.4941,-749 200.4941,-732 200.4941,-732 200.4941,-726 206.4941,-720 212.4941,-720 212.4941,-720 259.4941,-720 259.4941,-720 265.4941,-720 271.4941,-726 271.4941,-732 271.4941,-732 271.4941,-749 271.4941,-749 271.4941,-755 265.4941,-761 259.4941,-761"/>
<text text-anchor="middle" x="235.9941" y="-749" font-family="sans" font-size="10.00" fill="#000000">map_reads</text>
<text text-anchor="middle" x="235.9941" y="-738" font-family="sans" font-size="10.00" fill="#000000">sample: B</text>
<text text-anchor="middle" x="235.9941" y="-727" font-family="sans" font-size="10.00" fill="#000000">unit: 1</text>
</g>
<!-- 14&#45;&gt;11 -->
<g id="edge15" class="edge">
<title>14&#45;&gt;11</title>
<path fill="none" stroke="#c0c0c0" stroke-width="2" d="M219.7918,-719.8474C206.7655,-700.5481 192.5269,-671.2952 204.9941,-648 212.2512,-634.4399 224.584,-623.6969 237.4669,-615.4815"/>
<polygon fill="#c0c0c0" stroke="#c0c0c0" stroke-width="2" points="239.588,-618.2937 246.4182,-610.1943 236.0279,-612.2666 239.588,-618.2937"/>
</g>
<!-- 15 -->
<g id="node16" class="node">
<title>15</title>
<path fill="none" stroke="#d87556" stroke-width="2" stroke-dasharray="5,2" d="M345.4941,-684C345.4941,-684 226.4941,-684 226.4941,-684 220.4941,-684 214.4941,-678 214.4941,-672 214.4941,-672 214.4941,-660 214.4941,-660 214.4941,-654 220.4941,-648 226.4941,-648 226.4941,-648 345.4941,-648 345.4941,-648 351.4941,-648 357.4941,-654 357.4941,-660 357.4941,-660 357.4941,-672 357.4941,-672 357.4941,-678 351.4941,-684 345.4941,-684"/>
<text text-anchor="middle" x="285.9941" y="-669" font-family="sans" font-size="10.00" fill="#000000">samtools_index</text>
<text text-anchor="middle" x="285.9941" y="-658" font-family="sans" font-size="10.00" fill="#000000">prefix: mapped/B&#45;1.sorted</text>
</g>
<!-- 14&#45;&gt;15 -->
<g id="edge20" class="edge">
<title>14&#45;&gt;15</title>
<path fill="none" stroke="#c0c0c0" stroke-width="2" d="M249.9219,-719.7476C255.5565,-711.352 262.1316,-701.5551 268.1134,-692.6423"/>
<polygon fill="#c0c0c0" stroke="#c0c0c0" stroke-width="2" points="271.174,-694.3625 273.8406,-684.1087 265.3617,-690.4615 271.174,-694.3625"/>
</g>
<!-- 15&#45;&gt;11 -->
<g id="edge16" class="edge">
<title>15&#45;&gt;11</title>
<path fill="none" stroke="#c0c0c0" stroke-width="2" d="M285.9941,-647.8314C285.9941,-640.131 285.9941,-630.9743 285.9941,-622.4166"/>
<polygon fill="#c0c0c0" stroke="#c0c0c0" stroke-width="2" points="289.4942,-622.4132 285.9941,-612.4133 282.4942,-622.4133 289.4942,-622.4132"/>
</g>
<!-- 16 -->
<g id="node17" class="node">
<title>16</title>
<path fill="none" stroke="#bed856" stroke-width="2" stroke-dasharray="5,2" d="M459.4941,-761C459.4941,-761 412.4941,-761 412.4941,-761 406.4941,-761 400.4941,-755 400.4941,-749 400.4941,-749 400.4941,-732 400.4941,-732 400.4941,-726 406.4941,-720 412.4941,-720 412.4941,-720 459.4941,-720 459.4941,-720 465.4941,-720 471.4941,-726 471.4941,-732 471.4941,-732 471.4941,-749 471.4941,-749 471.4941,-755 465.4941,-761 459.4941,-761"/>
<text text-anchor="middle" x="435.9941" y="-749" font-family="sans" font-size="10.00" fill="#000000">map_reads</text>
<text text-anchor="middle" x="435.9941" y="-738" font-family="sans" font-size="10.00" fill="#000000">sample: B</text>
<text text-anchor="middle" x="435.9941" y="-727" font-family="sans" font-size="10.00" fill="#000000">unit: 2</text>
</g>
<!-- 16&#45;&gt;11 -->
<g id="edge17" class="edge">
<title>16&#45;&gt;11</title>
<path fill="none" stroke="#c0c0c0" stroke-width="2" d="M423.4983,-719.7889C410.8621,-699.9132 389.9616,-669.7837 366.9941,-648 355.1241,-636.742 340.6501,-626.2772 327.2382,-617.6154"/>
<polygon fill="#c0c0c0" stroke="#c0c0c0" stroke-width="2" points="328.9446,-614.554 318.6161,-612.1934 325.2182,-620.4797 328.9446,-614.554"/>
</g>
<!-- 17 -->
<g id="node18" class="node">
<title>17</title>
<path fill="none" stroke="#d87556" stroke-width="2" stroke-dasharray="5,2" d="M545.4941,-684C545.4941,-684 426.4941,-684 426.4941,-684 420.4941,-684 414.4941,-678 414.4941,-672 414.4941,-672 414.4941,-660 414.4941,-660 414.4941,-654 420.4941,-648 426.4941,-648 426.4941,-648 545.4941,-648 545.4941,-648 551.4941,-648 557.4941,-654 557.4941,-660 557.4941,-660 557.4941,-672 557.4941,-672 557.4941,-678 551.4941,-684 545.4941,-684"/>
<text text-anchor="middle" x="485.9941" y="-669" font-family="sans" font-size="10.00" fill="#000000">samtools_index</text>
<text text-anchor="middle" x="485.9941" y="-658" font-family="sans" font-size="10.00" fill="#000000">prefix: mapped/B&#45;2.sorted</text>
</g>
<!-- 16&#45;&gt;17 -->
<g id="edge21" class="edge">
<title>16&#45;&gt;17</title>
<path fill="none" stroke="#c0c0c0" stroke-width="2" d="M449.9219,-719.7476C455.5565,-711.352 462.1316,-701.5551 468.1134,-692.6423"/>
<polygon fill="#c0c0c0" stroke="#c0c0c0" stroke-width="2" points="471.174,-694.3625 473.8406,-684.1087 465.3617,-690.4615 471.174,-694.3625"/>
</g>
<!-- 17&#45;&gt;11 -->
<g id="edge18" class="edge">
<title>17&#45;&gt;11</title>
<path fill="none" stroke="#c0c0c0" stroke-width="2" d="M435.7838,-647.9243C404.9826,-636.8359 365.7204,-622.7015 335.1207,-611.6856"/>
<polygon fill="#c0c0c0" stroke="#c0c0c0" stroke-width="2" points="336.1062,-608.3205 325.5118,-608.2264 333.7352,-614.9068 336.1062,-608.3205"/>
</g>
</g>
</svg>
