<?xml version="1.0" encoding="UTF-8" standalone="no"?>
<!DOCTYPE svg PUBLIC "-//W3C//DTD SVG 1.1//EN"
 "http://www.w3.org/Graphics/SVG/1.1/DTD/svg11.dtd">
<!-- Generated by graphviz version 2.40.1 (20161225.0304)
 -->
<!-- Title: snakemake_dag Pages: 1 -->
<svg width="354pt" height="476pt"
 viewBox="0.00 0.00 354.00 476.00" xmlns="http://www.w3.org/2000/svg" xmlns:xlink="http://www.w3.org/1999/xlink">
<g id="graph0" class="graph" transform="scale(1 1) rotate(0) translate(4 472)">
<title>snakemake_dag</title>
<polygon fill="#ffffff" stroke="transparent" points="-4,4 -4,-472 350,-472 350,4 -4,4"/>
<!-- 0 -->
<g id="node1" class="node">
<title>0</title>
<path fill="none" stroke="#56d88a" stroke-width="2" d="M146,-36C146,-36 116,-36 116,-36 110,-36 104,-30 104,-24 104,-24 104,-12 104,-12 104,-6 110,0 116,0 116,0 146,0 146,0 152,0 158,-6 158,-12 158,-12 158,-24 158,-24 158,-30 152,-36 146,-36"/>
<text text-anchor="middle" x="131" y="-15.5" font-family="sans" font-size="10.00" fill="#000000">all</text>
</g>
<!-- 1 -->
<g id="node2" class="node">
<title>1</title>
<path fill="none" stroke="#bed856" stroke-width="2" d="M173.5,-468C173.5,-468 126.5,-468 126.5,-468 120.5,-468 114.5,-462 114.5,-456 114.5,-456 114.5,-444 114.5,-444 114.5,-438 120.5,-432 126.5,-432 126.5,-432 173.5,-432 173.5,-432 179.5,-432 185.5,-438 185.5,-444 185.5,-444 185.5,-456 185.5,-456 185.5,-462 179.5,-468 173.5,-468"/>
<text text-anchor="middle" x="150" y="-447.5" font-family="sans" font-size="10.00" fill="#000000">map_reads</text>
</g>
<!-- 1&#45;&gt;0 -->
<g id="edge3" class="edge">
<title>1&#45;&gt;0</title>
<path fill="none" stroke="#c0c0c0" stroke-width="2" d="M114.4521,-434.8476C70.0951,-413.2686 0,-369.174 0,-306 0,-306 0,-306 0,-162 0,-105.3673 56.1262,-61.1773 94.903,-37.405"/>
<polygon fill="#c0c0c0" stroke="#c0c0c0" stroke-width="2" points="97.0473,-40.2022 103.8567,-32.0854 93.4718,-34.1842 97.0473,-40.2022"/>
</g>
<!-- 2 -->
<g id="node3" class="node">
<title>2</title>
<path fill="none" stroke="#d88d56" stroke-width="2" d="M114,-252C114,-252 40,-252 40,-252 34,-252 28,-246 28,-240 28,-240 28,-228 28,-228 28,-222 34,-216 40,-216 40,-216 114,-216 114,-216 120,-216 126,-222 126,-228 126,-228 126,-240 126,-240 126,-246 120,-252 114,-252"/>
<text text-anchor="middle" x="77" y="-231.5" font-family="sans" font-size="10.00" fill="#000000">mark_duplicates</text>
</g>
<!-- 1&#45;&gt;2 -->
<g id="edge6" class="edge">
<title>1&#45;&gt;2</title>
<path fill="none" stroke="#c0c0c0" stroke-width="2" d="M125.5089,-431.8755C114.6228,-422.4397 102.7623,-409.9606 96,-396 75.0585,-352.7664 73.5279,-295.6942 74.8784,-262.1085"/>
<polygon fill="#c0c0c0" stroke="#c0c0c0" stroke-width="2" points="78.376,-262.244 75.3971,-252.0766 71.3853,-261.8825 78.376,-262.244"/>
</g>
<!-- 7 -->
<g id="node8" class="node">
<title>7</title>
<path fill="none" stroke="#568ad8" stroke-width="2" d="M183.5,-396C183.5,-396 116.5,-396 116.5,-396 110.5,-396 104.5,-390 104.5,-384 104.5,-384 104.5,-372 104.5,-372 104.5,-366 110.5,-360 116.5,-360 116.5,-360 183.5,-360 183.5,-360 189.5,-360 195.5,-366 195.5,-372 195.5,-372 195.5,-384 195.5,-384 195.5,-390 189.5,-396 183.5,-396"/>
<text text-anchor="middle" x="150" y="-375.5" font-family="sans" font-size="10.00" fill="#000000">samtools_stats</text>
</g>
<!-- 1&#45;&gt;7 -->
<g id="edge11" class="edge">
<title>1&#45;&gt;7</title>
<path fill="none" stroke="#c0c0c0" stroke-width="2" d="M150,-431.8314C150,-424.131 150,-414.9743 150,-406.4166"/>
<polygon fill="#c0c0c0" stroke="#c0c0c0" stroke-width="2" points="153.5001,-406.4132 150,-396.4133 146.5001,-406.4133 153.5001,-406.4132"/>
</g>
<!-- 8 -->
<g id="node9" class="node">
<title>8</title>
<path fill="none" stroke="#d8bc56" stroke-width="2" d="M252,-324C252,-324 196,-324 196,-324 190,-324 184,-318 184,-312 184,-312 184,-300 184,-300 184,-294 190,-288 196,-288 196,-288 252,-288 252,-288 258,-288 264,-294 264,-300 264,-300 264,-312 264,-312 264,-318 258,-324 252,-324"/>
<text text-anchor="middle" x="224" y="-303.5" font-family="sans" font-size="10.00" fill="#000000">mutect2_call</text>
</g>
<!-- 1&#45;&gt;8 -->
<g id="edge13" class="edge">
<title>1&#45;&gt;8</title>
<path fill="none" stroke="#c0c0c0" stroke-width="2" d="M174.1007,-431.914C185.1332,-422.4021 197.4115,-409.8473 205,-396 215.393,-377.035 220.1072,-352.9498 222.2424,-334.4684"/>
<polygon fill="#c0c0c0" stroke="#c0c0c0" stroke-width="2" points="225.7453,-334.6062 223.2249,-324.3155 218.7779,-333.9318 225.7453,-334.6062"/>
</g>
<!-- 9 -->
<g id="node10" class="node">
<title>9</title>
<path fill="none" stroke="#56c1d8" stroke-width="2" d="M334,-396C334,-396 264,-396 264,-396 258,-396 252,-390 252,-384 252,-384 252,-372 252,-372 252,-366 258,-360 264,-360 264,-360 334,-360 334,-360 340,-360 346,-366 346,-372 346,-372 346,-384 346,-384 346,-390 340,-396 334,-396"/>
<text text-anchor="middle" x="299" y="-375.5" font-family="sans" font-size="10.00" fill="#000000">samtools_index</text>
</g>
<!-- 1&#45;&gt;9 -->
<g id="edge14" class="edge">
<title>1&#45;&gt;9</title>
<path fill="none" stroke="#c0c0c0" stroke-width="2" d="M185.6892,-432.7542C205.6382,-423.1144 230.7383,-410.9855 252.2412,-400.5948"/>
<polygon fill="#c0c0c0" stroke="#c0c0c0" stroke-width="2" points="254.0417,-403.6121 261.5227,-396.1098 250.996,-397.3094 254.0417,-403.6121"/>
</g>
<!-- 2&#45;&gt;0 -->
<g id="edge2" class="edge">
<title>2&#45;&gt;0</title>
<path fill="none" stroke="#c0c0c0" stroke-width="2" d="M80.8208,-215.6724C84.6796,-197.4464 90.9229,-168.7136 97,-144 105.3215,-110.1591 115.9169,-71.4991 123.0499,-46.0267"/>
<polygon fill="#c0c0c0" stroke="#c0c0c0" stroke-width="2" points="126.4484,-46.8703 125.7861,-36.2962 119.7097,-44.9754 126.4484,-46.8703"/>
</g>
<!-- 3 -->
<g id="node4" class="node">
<title>3</title>
<path fill="none" stroke="#d85656" stroke-width="2" d="M239,-108C239,-108 209,-108 209,-108 203,-108 197,-102 197,-96 197,-96 197,-84 197,-84 197,-78 203,-72 209,-72 209,-72 239,-72 239,-72 245,-72 251,-78 251,-84 251,-84 251,-96 251,-96 251,-102 245,-108 239,-108"/>
<text text-anchor="middle" x="224" y="-87.5" font-family="sans" font-size="10.00" fill="#000000">snpeff</text>
</g>
<!-- 3&#45;&gt;0 -->
<g id="edge1" class="edge">
<title>3&#45;&gt;0</title>
<path fill="none" stroke="#c0c0c0" stroke-width="2" d="M200.5322,-71.8314C188.9673,-62.8779 174.8596,-51.9558 162.3817,-42.2955"/>
<polygon fill="#c0c0c0" stroke="#c0c0c0" stroke-width="2" points="164.5102,-39.5171 154.4603,-36.1628 160.225,-45.0521 164.5102,-39.5171"/>
</g>
<!-- 4 -->
<g id="node5" class="node">
<title>4</title>
<path fill="none" stroke="#56d8c1" stroke-width="2" d="M258,-180C258,-180 190,-180 190,-180 184,-180 178,-174 178,-168 178,-168 178,-156 178,-156 178,-150 184,-144 190,-144 190,-144 258,-144 258,-144 264,-144 270,-150 270,-156 270,-156 270,-168 270,-168 270,-174 264,-180 258,-180"/>
<text text-anchor="middle" x="224" y="-159.5" font-family="sans" font-size="10.00" fill="#000000">bcftools_merge</text>
</g>
<!-- 4&#45;&gt;0 -->
<g id="edge5" class="edge">
<title>4&#45;&gt;0</title>
<path fill="none" stroke="#c0c0c0" stroke-width="2" d="M211.5629,-143.5764C204.5779,-133.1714 195.7361,-119.904 188,-108 174.2684,-86.8704 159.0074,-62.7384 147.7345,-44.7852"/>
<polygon fill="#c0c0c0" stroke="#c0c0c0" stroke-width="2" points="150.5095,-42.6222 142.2324,-36.0087 144.5787,-46.3405 150.5095,-42.6222"/>
</g>
<!-- 4&#45;&gt;3 -->
<g id="edge7" class="edge">
<title>4&#45;&gt;3</title>
<path fill="none" stroke="#c0c0c0" stroke-width="2" d="M224,-143.8314C224,-136.131 224,-126.9743 224,-118.4166"/>
<polygon fill="#c0c0c0" stroke="#c0c0c0" stroke-width="2" points="227.5001,-118.4132 224,-108.4133 220.5001,-118.4133 227.5001,-118.4132"/>
</g>
<!-- 5 -->
<g id="node6" class="node">
<title>5</title>
<path fill="none" stroke="#88d856" stroke-width="2" d="M148,-180C148,-180 118,-180 118,-180 112,-180 106,-174 106,-168 106,-168 106,-156 106,-156 106,-150 112,-144 118,-144 118,-144 148,-144 148,-144 154,-144 160,-150 160,-156 160,-156 160,-168 160,-168 160,-174 154,-180 148,-180"/>
<text text-anchor="middle" x="133" y="-159.5" font-family="sans" font-size="10.00" fill="#000000">multiqc</text>
</g>
<!-- 5&#45;&gt;0 -->
<g id="edge4" class="edge">
<title>5&#45;&gt;0</title>
<path fill="none" stroke="#c0c0c0" stroke-width="2" d="M132.7467,-143.7623C132.4056,-119.201 131.7951,-75.2474 131.3938,-46.3541"/>
<polygon fill="#c0c0c0" stroke="#c0c0c0" stroke-width="2" points="134.8899,-46.04 131.2512,-36.0896 127.8906,-46.1373 134.8899,-46.04"/>
</g>
<!-- 6 -->
<g id="node7" class="node">
<title>6</title>
<path fill="none" stroke="#59d856" stroke-width="2" d="M239,-252C239,-252 209,-252 209,-252 203,-252 197,-246 197,-240 197,-240 197,-228 197,-228 197,-222 203,-216 209,-216 209,-216 239,-216 239,-216 245,-216 251,-222 251,-228 251,-228 251,-240 251,-240 251,-246 245,-252 239,-252"/>
<text text-anchor="middle" x="224" y="-231.5" font-family="sans" font-size="10.00" fill="#000000">bgzip</text>
</g>
<!-- 6&#45;&gt;4 -->
<g id="edge8" class="edge">
<title>6&#45;&gt;4</title>
<path fill="none" stroke="#c0c0c0" stroke-width="2" d="M224,-215.8314C224,-208.131 224,-198.9743 224,-190.4166"/>
<polygon fill="#c0c0c0" stroke="#c0c0c0" stroke-width="2" points="227.5001,-190.4132 224,-180.4133 220.5001,-190.4133 227.5001,-190.4132"/>
</g>
<!-- 7&#45;&gt;5 -->
<g id="edge9" class="edge">
<title>7&#45;&gt;5</title>
<path fill="none" stroke="#c0c0c0" stroke-width="2" d="M148.5798,-359.9555C145.6173,-322.3144 138.7601,-235.1867 135.2135,-190.1246"/>
<polygon fill="#c0c0c0" stroke="#c0c0c0" stroke-width="2" points="138.702,-189.8396 134.4281,-180.1451 131.7236,-190.3889 138.702,-189.8396"/>
</g>
<!-- 8&#45;&gt;6 -->
<g id="edge10" class="edge">
<title>8&#45;&gt;6</title>
<path fill="none" stroke="#c0c0c0" stroke-width="2" d="M224,-287.8314C224,-280.131 224,-270.9743 224,-262.4166"/>
<polygon fill="#c0c0c0" stroke="#c0c0c0" stroke-width="2" points="227.5001,-262.4132 224,-252.4133 220.5001,-262.4133 227.5001,-262.4132"/>
</g>
<!-- 9&#45;&gt;8 -->
<g id="edge12" class="edge">
<title>9&#45;&gt;8</title>
<path fill="none" stroke="#c0c0c0" stroke-width="2" d="M280.0743,-359.8314C271.0143,-351.1337 260.0191,-340.5783 250.1735,-331.1265"/>
<polygon fill="#c0c0c0" stroke="#c0c0c0" stroke-width="2" points="252.5574,-328.5633 242.9196,-324.1628 247.7096,-333.613 252.5574,-328.5633"/>
</g>
</g>
</svg>
