<?xml version="1.0" encoding="UTF-8" standalone="no"?>
<!DOCTYPE svg PUBLIC "-//W3C//DTD SVG 1.1//EN"
 "http://www.w3.org/Graphics/SVG/1.1/DTD/svg11.dtd">
<!-- Generated by graphviz version 2.40.1 (20161225.0304)
 -->
<!-- Title: snakemake_dag Pages: 1 -->
<svg width="329pt" height="476pt"
 viewBox="0.00 0.00 329.00 476.00" xmlns="http://www.w3.org/2000/svg" xmlns:xlink="http://www.w3.org/1999/xlink">
<g id="graph0" class="graph" transform="scale(1 1) rotate(0) translate(4 472)">
<title>snakemake_dag</title>
<polygon fill="#ffffff" stroke="transparent" points="-4,4 -4,-472 325,-472 325,4 -4,4"/>
<!-- 0 -->
<g id="node1" class="node">
<title>0</title>
<path fill="none" stroke="#56d88a" stroke-width="2" d="M149,-36C149,-36 119,-36 119,-36 113,-36 107,-30 107,-24 107,-24 107,-12 107,-12 107,-6 113,0 119,0 119,0 149,0 149,0 155,0 161,-6 161,-12 161,-12 161,-24 161,-24 161,-30 155,-36 149,-36"/>
<text text-anchor="middle" x="134" y="-15.5" font-family="sans" font-size="10.00" fill="#000000">all</text>
</g>
<!-- 1 -->
<g id="node2" class="node">
<title>1</title>
<path fill="none" stroke="#bed856" stroke-width="2" d="M86,-252C86,-252 12,-252 12,-252 6,-252 0,-246 0,-240 0,-240 0,-228 0,-228 0,-222 6,-216 12,-216 12,-216 86,-216 86,-216 92,-216 98,-222 98,-228 98,-228 98,-240 98,-240 98,-246 92,-252 86,-252"/>
<text text-anchor="middle" x="49" y="-231.5" font-family="sans" font-size="10.00" fill="#000000">mark_duplicates</text>
</g>
<!-- 1&#45;&gt;0 -->
<g id="edge4" class="edge">
<title>1&#45;&gt;0</title>
<path fill="none" stroke="#c0c0c0" stroke-width="2" d="M54.7924,-215.9304C60.7508,-197.6575 70.4802,-168.6683 80,-144 93.2377,-109.6977 110.1644,-70.9087 121.5065,-45.5411"/>
<polygon fill="#c0c0c0" stroke="#c0c0c0" stroke-width="2" points="124.8019,-46.7465 125.7063,-36.1904 118.4164,-43.8785 124.8019,-46.7465"/>
</g>
<!-- 2 -->
<g id="node3" class="node">
<title>2</title>
<path fill="none" stroke="#88d856" stroke-width="2" d="M223,-108C223,-108 193,-108 193,-108 187,-108 181,-102 181,-96 181,-96 181,-84 181,-84 181,-78 187,-72 193,-72 193,-72 223,-72 223,-72 229,-72 235,-78 235,-84 235,-84 235,-96 235,-96 235,-102 229,-108 223,-108"/>
<text text-anchor="middle" x="208" y="-87.5" font-family="sans" font-size="10.00" fill="#000000">snpeff</text>
</g>
<!-- 2&#45;&gt;0 -->
<g id="edge3" class="edge">
<title>2&#45;&gt;0</title>
<path fill="none" stroke="#c0c0c0" stroke-width="2" d="M189.3267,-71.8314C180.4751,-63.219 169.7514,-52.7851 160.1105,-43.4048"/>
<polygon fill="#c0c0c0" stroke="#c0c0c0" stroke-width="2" points="162.2754,-40.6279 152.6674,-36.1628 157.3939,-45.645 162.2754,-40.6279"/>
</g>
<!-- 3 -->
<g id="node4" class="node">
<title>3</title>
<path fill="none" stroke="#d8bc56" stroke-width="2" d="M131,-180C131,-180 101,-180 101,-180 95,-180 89,-174 89,-168 89,-168 89,-156 89,-156 89,-150 95,-144 101,-144 101,-144 131,-144 131,-144 137,-144 143,-150 143,-156 143,-156 143,-168 143,-168 143,-174 137,-180 131,-180"/>
<text text-anchor="middle" x="116" y="-159.5" font-family="sans" font-size="10.00" fill="#000000">multiqc</text>
</g>
<!-- 3&#45;&gt;0 -->
<g id="edge2" class="edge">
<title>3&#45;&gt;0</title>
<path fill="none" stroke="#c0c0c0" stroke-width="2" d="M118.2797,-143.7623C121.3499,-119.201 126.8441,-75.2474 130.4557,-46.3541"/>
<polygon fill="#c0c0c0" stroke="#c0c0c0" stroke-width="2" points="133.9713,-46.4465 131.7388,-36.0896 127.0254,-45.5782 133.9713,-46.4465"/>
</g>
<!-- 4 -->
<g id="node5" class="node">
<title>4</title>
<path fill="none" stroke="#d88d56" stroke-width="2" d="M242,-180C242,-180 174,-180 174,-180 168,-180 162,-174 162,-168 162,-168 162,-156 162,-156 162,-150 168,-144 174,-144 174,-144 242,-144 242,-144 248,-144 254,-150 254,-156 254,-156 254,-168 254,-168 254,-174 248,-180 242,-180"/>
<text text-anchor="middle" x="208" y="-159.5" font-family="sans" font-size="10.00" fill="#000000">bcftools_merge</text>
</g>
<!-- 4&#45;&gt;0 -->
<g id="edge1" class="edge">
<title>4&#45;&gt;0</title>
<path fill="none" stroke="#c0c0c0" stroke-width="2" d="M194.438,-143.5475C187.2749,-133.3566 178.6216,-120.3027 172,-108 161.0804,-87.712 151.0496,-63.6131 144.039,-45.4605"/>
<polygon fill="#c0c0c0" stroke="#c0c0c0" stroke-width="2" points="147.2882,-44.1576 140.4685,-36.0494 140.7434,-46.6407 147.2882,-44.1576"/>
</g>
<!-- 4&#45;&gt;2 -->
<g id="edge6" class="edge">
<title>4&#45;&gt;2</title>
<path fill="none" stroke="#c0c0c0" stroke-width="2" d="M208,-143.8314C208,-136.131 208,-126.9743 208,-118.4166"/>
<polygon fill="#c0c0c0" stroke="#c0c0c0" stroke-width="2" points="211.5001,-118.4132 208,-108.4133 204.5001,-118.4133 211.5001,-118.4132"/>
</g>
<!-- 5 -->
<g id="node6" class="node">
<title>5</title>
<path fill="none" stroke="#d85656" stroke-width="2" d="M185.5,-468C185.5,-468 138.5,-468 138.5,-468 132.5,-468 126.5,-462 126.5,-456 126.5,-456 126.5,-444 126.5,-444 126.5,-438 132.5,-432 138.5,-432 138.5,-432 185.5,-432 185.5,-432 191.5,-432 197.5,-438 197.5,-444 197.5,-444 197.5,-456 197.5,-456 197.5,-462 191.5,-468 185.5,-468"/>
<text text-anchor="middle" x="162" y="-447.5" font-family="sans" font-size="10.00" fill="#000000">map_reads</text>
</g>
<!-- 5&#45;&gt;1 -->
<g id="edge5" class="edge">
<title>5&#45;&gt;1</title>
<path fill="none" stroke="#c0c0c0" stroke-width="2" d="M126.2717,-438.0279C106.4399,-429.4815 83.1821,-415.9254 70,-396 43.2429,-355.5553 42.8612,-296.8638 45.558,-262.3457"/>
<polygon fill="#c0c0c0" stroke="#c0c0c0" stroke-width="2" points="49.0751,-262.3218 46.5122,-252.0417 42.1049,-261.6763 49.0751,-262.3218"/>
</g>
<!-- 6 -->
<g id="node7" class="node">
<title>6</title>
<path fill="none" stroke="#56d8c1" stroke-width="2" d="M158.5,-396C158.5,-396 91.5,-396 91.5,-396 85.5,-396 79.5,-390 79.5,-384 79.5,-384 79.5,-372 79.5,-372 79.5,-366 85.5,-360 91.5,-360 91.5,-360 158.5,-360 158.5,-360 164.5,-360 170.5,-366 170.5,-372 170.5,-372 170.5,-384 170.5,-384 170.5,-390 164.5,-396 158.5,-396"/>
<text text-anchor="middle" x="125" y="-375.5" font-family="sans" font-size="10.00" fill="#000000">samtools_stats</text>
</g>
<!-- 5&#45;&gt;6 -->
<g id="edge9" class="edge">
<title>5&#45;&gt;6</title>
<path fill="none" stroke="#c0c0c0" stroke-width="2" d="M152.6633,-431.8314C148.5757,-423.8771 143.6896,-414.369 139.1691,-405.5723"/>
<polygon fill="#c0c0c0" stroke="#c0c0c0" stroke-width="2" points="142.1461,-403.7078 134.4624,-396.4133 135.9201,-406.9074 142.1461,-403.7078"/>
</g>
<!-- 8 -->
<g id="node9" class="node">
<title>8</title>
<path fill="none" stroke="#59d856" stroke-width="2" d="M235,-324C235,-324 181,-324 181,-324 175,-324 169,-318 169,-312 169,-312 169,-300 169,-300 169,-294 175,-288 181,-288 181,-288 235,-288 235,-288 241,-288 247,-294 247,-300 247,-300 247,-312 247,-312 247,-318 241,-324 235,-324"/>
<text text-anchor="middle" x="208" y="-303.5" font-family="sans" font-size="10.00" fill="#000000">bcftools_call</text>
</g>
<!-- 5&#45;&gt;8 -->
<g id="edge11" class="edge">
<title>5&#45;&gt;8</title>
<path fill="none" stroke="#c0c0c0" stroke-width="2" d="M168.2569,-431.5358C171.7615,-421.1181 176.1816,-407.8515 180,-396 186.6698,-375.2983 193.9615,-351.8323 199.4315,-334.0528"/>
<polygon fill="#c0c0c0" stroke="#c0c0c0" stroke-width="2" points="202.8349,-334.8924 202.4231,-324.3056 196.1429,-332.8385 202.8349,-334.8924"/>
</g>
<!-- 9 -->
<g id="node10" class="node">
<title>9</title>
<path fill="none" stroke="#56c1d8" stroke-width="2" d="M309,-396C309,-396 239,-396 239,-396 233,-396 227,-390 227,-384 227,-384 227,-372 227,-372 227,-366 233,-360 239,-360 239,-360 309,-360 309,-360 315,-360 321,-366 321,-372 321,-372 321,-384 321,-384 321,-390 315,-396 309,-396"/>
<text text-anchor="middle" x="274" y="-375.5" font-family="sans" font-size="10.00" fill="#000000">samtools_index</text>
</g>
<!-- 5&#45;&gt;9 -->
<g id="edge13" class="edge">
<title>5&#45;&gt;9</title>
<path fill="none" stroke="#c0c0c0" stroke-width="2" d="M190.2623,-431.8314C204.4552,-422.7074 221.8282,-411.539 237.0636,-401.7449"/>
<polygon fill="#c0c0c0" stroke="#c0c0c0" stroke-width="2" points="239.2276,-404.5146 245.7467,-396.1628 235.4422,-398.6263 239.2276,-404.5146"/>
</g>
<!-- 6&#45;&gt;3 -->
<g id="edge7" class="edge">
<title>6&#45;&gt;3</title>
<path fill="none" stroke="#c0c0c0" stroke-width="2" d="M124.2481,-359.9555C122.6831,-322.3938 119.0648,-235.5541 117.1838,-190.4103"/>
<polygon fill="#c0c0c0" stroke="#c0c0c0" stroke-width="2" points="120.6694,-189.9907 116.756,-180.1451 113.6755,-190.2821 120.6694,-189.9907"/>
</g>
<!-- 7 -->
<g id="node8" class="node">
<title>7</title>
<path fill="none" stroke="#568ad8" stroke-width="2" d="M223,-252C223,-252 193,-252 193,-252 187,-252 181,-246 181,-240 181,-240 181,-228 181,-228 181,-222 187,-216 193,-216 193,-216 223,-216 223,-216 229,-216 235,-222 235,-228 235,-228 235,-240 235,-240 235,-246 229,-252 223,-252"/>
<text text-anchor="middle" x="208" y="-231.5" font-family="sans" font-size="10.00" fill="#000000">bgzip</text>
</g>
<!-- 7&#45;&gt;4 -->
<g id="edge8" class="edge">
<title>7&#45;&gt;4</title>
<path fill="none" stroke="#c0c0c0" stroke-width="2" d="M208,-215.8314C208,-208.131 208,-198.9743 208,-190.4166"/>
<polygon fill="#c0c0c0" stroke="#c0c0c0" stroke-width="2" points="211.5001,-190.4132 208,-180.4133 204.5001,-190.4133 211.5001,-190.4132"/>
</g>
<!-- 8&#45;&gt;7 -->
<g id="edge10" class="edge">
<title>8&#45;&gt;7</title>
<path fill="none" stroke="#c0c0c0" stroke-width="2" d="M208,-287.8314C208,-280.131 208,-270.9743 208,-262.4166"/>
<polygon fill="#c0c0c0" stroke="#c0c0c0" stroke-width="2" points="211.5001,-262.4132 208,-252.4133 204.5001,-262.4133 211.5001,-262.4132"/>
</g>
<!-- 9&#45;&gt;8 -->
<g id="edge12" class="edge">
<title>9&#45;&gt;8</title>
<path fill="none" stroke="#c0c0c0" stroke-width="2" d="M257.3454,-359.8314C249.5886,-351.3694 240.2198,-341.1489 231.739,-331.8971"/>
<polygon fill="#c0c0c0" stroke="#c0c0c0" stroke-width="2" points="234.2162,-329.4198 224.8788,-324.4133 229.0561,-334.1499 234.2162,-329.4198"/>
</g>
</g>
</svg>
