<?xml version="1.0" encoding="UTF-8" standalone="no"?>
<!DOCTYPE svg PUBLIC "-//W3C//DTD SVG 1.1//EN"
 "http://www.w3.org/Graphics/SVG/1.1/DTD/svg11.dtd">
<!-- Generated by graphviz version 2.40.1 (20161225.0304)
 -->
<!-- Title: snakemake_dag Pages: 1 -->
<svg width="380pt" height="337pt"
 viewBox="0.00 0.00 380.00 337.00" xmlns="http://www.w3.org/2000/svg" xmlns:xlink="http://www.w3.org/1999/xlink">
<g id="graph0" class="graph" transform="scale(1 1) rotate(0) translate(4 333)">
<title>snakemake_dag</title>
<polygon fill="#ffffff" stroke="transparent" points="-4,4 -4,-333 376,-333 376,4 -4,4"/>
<!-- 0 -->
<g id="node1" class="node">
<title>0</title>
<path fill="none" stroke="#56d89a" stroke-width="2" stroke-dasharray="5,2" d="M188,-36C188,-36 158,-36 158,-36 152,-36 146,-30 146,-24 146,-24 146,-12 146,-12 146,-6 152,0 158,0 158,0 188,0 188,0 194,0 200,-6 200,-12 200,-12 200,-24 200,-24 200,-30 194,-36 188,-36"/>
<text text-anchor="middle" x="173" y="-15.5" font-family="sans" font-size="10.00" fill="#000000">snpeff</text>
</g>
<!-- 1 -->
<g id="node2" class="node">
<title>1</title>
<path fill="none" stroke="#9fd856" stroke-width="2" stroke-dasharray="5,2" d="M207,-108C207,-108 139,-108 139,-108 133,-108 127,-102 127,-96 127,-96 127,-84 127,-84 127,-78 133,-72 139,-72 139,-72 207,-72 207,-72 213,-72 219,-78 219,-84 219,-84 219,-96 219,-96 219,-102 213,-108 207,-108"/>
<text text-anchor="middle" x="173" y="-87.5" font-family="sans" font-size="10.00" fill="#000000">bcftools_merge</text>
</g>
<!-- 1&#45;&gt;0 -->
<g id="edge1" class="edge">
<title>1&#45;&gt;0</title>
<path fill="none" stroke="#c0c0c0" stroke-width="2" d="M173,-71.8314C173,-64.131 173,-54.9743 173,-46.4166"/>
<polygon fill="#c0c0c0" stroke="#c0c0c0" stroke-width="2" points="176.5001,-46.4132 173,-36.4133 169.5001,-46.4133 176.5001,-46.4132"/>
</g>
<!-- 2 -->
<g id="node3" class="node">
<title>2</title>
<path fill="none" stroke="#56b1d8" stroke-width="2" stroke-dasharray="5,2" d="M152,-180C152,-180 12,-180 12,-180 6,-180 0,-174 0,-168 0,-168 0,-156 0,-156 0,-150 6,-144 12,-144 12,-144 152,-144 152,-144 158,-144 164,-150 164,-156 164,-156 164,-168 164,-168 164,-174 158,-180 152,-180"/>
<text text-anchor="middle" x="82" y="-165" font-family="sans" font-size="10.00" fill="#000000">bgzip</text>
<text text-anchor="middle" x="82" y="-154" font-family="sans" font-size="10.00" fill="#000000">prefix: results_dna/called/A.21</text>
</g>
<!-- 2&#45;&gt;1 -->
<g id="edge2" class="edge">
<title>2&#45;&gt;1</title>
<path fill="none" stroke="#c0c0c0" stroke-width="2" d="M104.9631,-143.8314C116.1715,-134.9632 129.8209,-124.1637 141.9439,-114.5718"/>
<polygon fill="#c0c0c0" stroke="#c0c0c0" stroke-width="2" points="144.3737,-117.1125 150.0442,-108.1628 140.0303,-111.6229 144.3737,-117.1125"/>
</g>
<!-- 3 -->
<g id="node4" class="node">
<title>3</title>
<path fill="none" stroke="#56b1d8" stroke-width="2" stroke-dasharray="5,2" d="M334,-180C334,-180 194,-180 194,-180 188,-180 182,-174 182,-168 182,-168 182,-156 182,-156 182,-150 188,-144 194,-144 194,-144 334,-144 334,-144 340,-144 346,-150 346,-156 346,-156 346,-168 346,-168 346,-174 340,-180 334,-180"/>
<text text-anchor="middle" x="264" y="-165" font-family="sans" font-size="10.00" fill="#000000">bgzip</text>
<text text-anchor="middle" x="264" y="-154" font-family="sans" font-size="10.00" fill="#000000">prefix: results_dna/called/B.21</text>
</g>
<!-- 3&#45;&gt;1 -->
<g id="edge3" class="edge">
<title>3&#45;&gt;1</title>
<path fill="none" stroke="#c0c0c0" stroke-width="2" d="M241.0369,-143.8314C229.8285,-134.9632 216.1791,-124.1637 204.0561,-114.5718"/>
<polygon fill="#c0c0c0" stroke="#c0c0c0" stroke-width="2" points="205.9697,-111.6229 195.9558,-108.1628 201.6263,-117.1125 205.9697,-111.6229"/>
</g>
<!-- 4 -->
<g id="node5" class="node">
<title>4</title>
<path fill="none" stroke="#56d8c9" stroke-width="2" stroke-dasharray="5,2" d="M102.5,-252C102.5,-252 61.5,-252 61.5,-252 55.5,-252 49.5,-246 49.5,-240 49.5,-240 49.5,-228 49.5,-228 49.5,-222 55.5,-216 61.5,-216 61.5,-216 102.5,-216 102.5,-216 108.5,-216 114.5,-222 114.5,-228 114.5,-228 114.5,-240 114.5,-240 114.5,-246 108.5,-252 102.5,-252"/>
<text text-anchor="middle" x="82" y="-237" font-family="sans" font-size="10.00" fill="#000000">freebayes</text>
<text text-anchor="middle" x="82" y="-226" font-family="sans" font-size="10.00" fill="#000000">contig: 21</text>
</g>
<!-- 4&#45;&gt;2 -->
<g id="edge4" class="edge">
<title>4&#45;&gt;2</title>
<path fill="none" stroke="#c0c0c0" stroke-width="2" d="M82,-215.8314C82,-208.131 82,-198.9743 82,-190.4166"/>
<polygon fill="#c0c0c0" stroke="#c0c0c0" stroke-width="2" points="85.5001,-190.4132 82,-180.4133 78.5001,-190.4133 85.5001,-190.4132"/>
</g>
<!-- 5 -->
<g id="node6" class="node">
<title>5</title>
<path fill="none" stroke="#56d8c9" stroke-width="2" stroke-dasharray="5,2" d="M284.5,-252C284.5,-252 243.5,-252 243.5,-252 237.5,-252 231.5,-246 231.5,-240 231.5,-240 231.5,-228 231.5,-228 231.5,-222 237.5,-216 243.5,-216 243.5,-216 284.5,-216 284.5,-216 290.5,-216 296.5,-222 296.5,-228 296.5,-228 296.5,-240 296.5,-240 296.5,-246 290.5,-252 284.5,-252"/>
<text text-anchor="middle" x="264" y="-237" font-family="sans" font-size="10.00" fill="#000000">freebayes</text>
<text text-anchor="middle" x="264" y="-226" font-family="sans" font-size="10.00" fill="#000000">contig: 21</text>
</g>
<!-- 5&#45;&gt;3 -->
<g id="edge5" class="edge">
<title>5&#45;&gt;3</title>
<path fill="none" stroke="#c0c0c0" stroke-width="2" d="M264,-215.8314C264,-208.131 264,-198.9743 264,-190.4166"/>
<polygon fill="#c0c0c0" stroke="#c0c0c0" stroke-width="2" points="267.5001,-190.4132 264,-180.4133 260.5001,-190.4133 267.5001,-190.4132"/>
</g>
<!-- 6 -->
<g id="node7" class="node">
<title>6</title>
<path fill="none" stroke="#d88556" stroke-width="2" stroke-dasharray="5,2" d="M113,-329C113,-329 51,-329 51,-329 45,-329 39,-323 39,-317 39,-317 39,-300 39,-300 39,-294 45,-288 51,-288 51,-288 113,-288 113,-288 119,-288 125,-294 125,-300 125,-300 125,-317 125,-317 125,-323 119,-329 113,-329"/>
<text text-anchor="middle" x="82" y="-317" font-family="sans" font-size="10.00" fill="#000000">samtools_sort</text>
<text text-anchor="middle" x="82" y="-306" font-family="sans" font-size="10.00" fill="#000000">sample: A</text>
<text text-anchor="middle" x="82" y="-295" font-family="sans" font-size="10.00" fill="#000000">unit: 1</text>
</g>
<!-- 6&#45;&gt;4 -->
<g id="edge6" class="edge">
<title>6&#45;&gt;4</title>
<path fill="none" stroke="#c0c0c0" stroke-width="2" d="M82,-287.7476C82,-279.8767 82,-270.7743 82,-262.3232"/>
<polygon fill="#c0c0c0" stroke="#c0c0c0" stroke-width="2" points="85.5001,-262.1086 82,-252.1087 78.5001,-262.1087 85.5001,-262.1086"/>
</g>
<!-- 7 -->
<g id="node8" class="node">
<title>7</title>
<path fill="none" stroke="#d88556" stroke-width="2" stroke-dasharray="5,2" d="M256,-329C256,-329 194,-329 194,-329 188,-329 182,-323 182,-317 182,-317 182,-300 182,-300 182,-294 188,-288 194,-288 194,-288 256,-288 256,-288 262,-288 268,-294 268,-300 268,-300 268,-317 268,-317 268,-323 262,-329 256,-329"/>
<text text-anchor="middle" x="225" y="-317" font-family="sans" font-size="10.00" fill="#000000">samtools_sort</text>
<text text-anchor="middle" x="225" y="-306" font-family="sans" font-size="10.00" fill="#000000">sample: B</text>
<text text-anchor="middle" x="225" y="-295" font-family="sans" font-size="10.00" fill="#000000">unit: 2</text>
</g>
<!-- 7&#45;&gt;5 -->
<g id="edge7" class="edge">
<title>7&#45;&gt;5</title>
<path fill="none" stroke="#c0c0c0" stroke-width="2" d="M235.8637,-287.7476C240.1671,-279.5269 245.1739,-269.9627 249.7608,-261.2004"/>
<polygon fill="#c0c0c0" stroke="#c0c0c0" stroke-width="2" points="252.9832,-262.5914 254.5203,-252.1087 246.7816,-259.3449 252.9832,-262.5914"/>
</g>
<!-- 8 -->
<g id="node9" class="node">
<title>8</title>
<path fill="none" stroke="#d88556" stroke-width="2" stroke-dasharray="5,2" d="M360,-329C360,-329 298,-329 298,-329 292,-329 286,-323 286,-317 286,-317 286,-300 286,-300 286,-294 292,-288 298,-288 298,-288 360,-288 360,-288 366,-288 372,-294 372,-300 372,-300 372,-317 372,-317 372,-323 366,-329 360,-329"/>
<text text-anchor="middle" x="329" y="-317" font-family="sans" font-size="10.00" fill="#000000">samtools_sort</text>
<text text-anchor="middle" x="329" y="-306" font-family="sans" font-size="10.00" fill="#000000">sample: B</text>
<text text-anchor="middle" x="329" y="-295" font-family="sans" font-size="10.00" fill="#000000">unit: 1</text>
</g>
<!-- 8&#45;&gt;5 -->
<g id="edge8" class="edge">
<title>8&#45;&gt;5</title>
<path fill="none" stroke="#c0c0c0" stroke-width="2" d="M310.8939,-287.7476C303.3399,-279.0896 294.4858,-268.9415 286.5182,-259.8093"/>
<polygon fill="#c0c0c0" stroke="#c0c0c0" stroke-width="2" points="289.0112,-257.3428 279.7995,-252.1087 283.7365,-261.9449 289.0112,-257.3428"/>
</g>
</g>
</svg>
