<?xml version="1.0" encoding="UTF-8" standalone="no"?>
<!DOCTYPE svg PUBLIC "-//W3C//DTD SVG 1.1//EN"
 "http://www.w3.org/Graphics/SVG/1.1/DTD/svg11.dtd">
<!-- Generated by graphviz version 2.40.1 (20161225.0304)
 -->
<!-- Title: snakemake_dag Pages: 1 -->
<svg width="354pt" height="548pt"
 viewBox="0.00 0.00 354.00 548.00" xmlns="http://www.w3.org/2000/svg" xmlns:xlink="http://www.w3.org/1999/xlink">
<g id="graph0" class="graph" transform="scale(1 1) rotate(0) translate(4 544)">
<title>snakemake_dag</title>
<polygon fill="#ffffff" stroke="transparent" points="-4,4 -4,-544 350,-544 350,4 -4,4"/>
<!-- 0 -->
<g id="node1" class="node">
<title>0</title>
<path fill="none" stroke="#afd856" stroke-width="2" d="M145,-36C145,-36 115,-36 115,-36 109,-36 103,-30 103,-24 103,-24 103,-12 103,-12 103,-6 109,0 115,0 115,0 145,0 145,0 151,0 157,-6 157,-12 157,-12 157,-24 157,-24 157,-30 151,-36 145,-36"/>
<text text-anchor="middle" x="130" y="-15.5" font-family="sans" font-size="10.00" fill="#000000">all</text>
</g>
<!-- 1 -->
<g id="node2" class="node">
<title>1</title>
<path fill="none" stroke="#56d8d8" stroke-width="2" d="M181,-468C181,-468 119,-468 119,-468 113,-468 107,-462 107,-456 107,-456 107,-444 107,-444 107,-438 113,-432 119,-432 119,-432 181,-432 181,-432 187,-432 193,-438 193,-444 193,-444 193,-456 193,-456 193,-462 187,-468 181,-468"/>
<text text-anchor="middle" x="150" y="-447.5" font-family="sans" font-size="10.00" fill="#000000">samtools_sort</text>
</g>
<!-- 1&#45;&gt;0 -->
<g id="edge4" class="edge">
<title>1&#45;&gt;0</title>
<path fill="none" stroke="#c0c0c0" stroke-width="2" d="M108.6148,-431.9494C64.2157,-409.454 0,-366.4665 0,-306 0,-306 0,-306 0,-162 0,-105.7186 55.3904,-61.5568 93.8593,-37.6729"/>
<polygon fill="#c0c0c0" stroke="#c0c0c0" stroke-width="2" points="95.9843,-40.479 102.7477,-32.3239 92.3749,-34.4813 95.9843,-40.479"/>
</g>
<!-- 2 -->
<g id="node3" class="node">
<title>2</title>
<path fill="none" stroke="#56d882" stroke-width="2" d="M114,-252C114,-252 40,-252 40,-252 34,-252 28,-246 28,-240 28,-240 28,-228 28,-228 28,-222 34,-216 40,-216 40,-216 114,-216 114,-216 120,-216 126,-222 126,-228 126,-228 126,-240 126,-240 126,-246 120,-252 114,-252"/>
<text text-anchor="middle" x="77" y="-231.5" font-family="sans" font-size="10.00" fill="#000000">mark_duplicates</text>
</g>
<!-- 1&#45;&gt;2 -->
<g id="edge7" class="edge">
<title>1&#45;&gt;2</title>
<path fill="none" stroke="#c0c0c0" stroke-width="2" d="M125.0195,-431.981C113.9235,-422.5693 101.8469,-410.0799 95,-396 74.0065,-352.8287 72.932,-295.7362 74.596,-262.1297"/>
<polygon fill="#c0c0c0" stroke="#c0c0c0" stroke-width="2" points="78.0929,-262.2865 75.2108,-252.0912 71.106,-261.8586 78.0929,-262.2865"/>
</g>
<!-- 7 -->
<g id="node8" class="node">
<title>7</title>
<path fill="none" stroke="#d85656" stroke-width="2" d="M183.5,-396C183.5,-396 116.5,-396 116.5,-396 110.5,-396 104.5,-390 104.5,-384 104.5,-384 104.5,-372 104.5,-372 104.5,-366 110.5,-360 116.5,-360 116.5,-360 183.5,-360 183.5,-360 189.5,-360 195.5,-366 195.5,-372 195.5,-372 195.5,-384 195.5,-384 195.5,-390 189.5,-396 183.5,-396"/>
<text text-anchor="middle" x="150" y="-375.5" font-family="sans" font-size="10.00" fill="#000000">samtools_stats</text>
</g>
<!-- 1&#45;&gt;7 -->
<g id="edge11" class="edge">
<title>1&#45;&gt;7</title>
<path fill="none" stroke="#c0c0c0" stroke-width="2" d="M150,-431.8314C150,-424.131 150,-414.9743 150,-406.4166"/>
<polygon fill="#c0c0c0" stroke="#c0c0c0" stroke-width="2" points="153.5001,-406.4132 150,-396.4133 146.5001,-406.4133 153.5001,-406.4132"/>
</g>
<!-- 9 -->
<g id="node10" class="node">
<title>9</title>
<path fill="none" stroke="#d8ac56" stroke-width="2" d="M252,-324C252,-324 196,-324 196,-324 190,-324 184,-318 184,-312 184,-312 184,-300 184,-300 184,-294 190,-288 196,-288 196,-288 252,-288 252,-288 258,-288 264,-294 264,-300 264,-300 264,-312 264,-312 264,-318 258,-324 252,-324"/>
<text text-anchor="middle" x="224" y="-303.5" font-family="sans" font-size="10.00" fill="#000000">mutect2_call</text>
</g>
<!-- 1&#45;&gt;9 -->
<g id="edge14" class="edge">
<title>1&#45;&gt;9</title>
<path fill="none" stroke="#c0c0c0" stroke-width="2" d="M173.5946,-431.798C184.4104,-422.2587 196.4716,-409.7143 204,-396 214.4306,-376.9988 219.4225,-352.9157 221.8108,-334.4444"/>
<polygon fill="#c0c0c0" stroke="#c0c0c0" stroke-width="2" points="225.3124,-334.6233 222.9377,-324.298 218.3552,-333.8506 225.3124,-334.6233"/>
</g>
<!-- 10 -->
<g id="node11" class="node">
<title>10</title>
<path fill="none" stroke="#d88556" stroke-width="2" d="M334,-396C334,-396 264,-396 264,-396 258,-396 252,-390 252,-384 252,-384 252,-372 252,-372 252,-366 258,-360 264,-360 264,-360 334,-360 334,-360 340,-360 346,-366 346,-372 346,-372 346,-384 346,-384 346,-390 340,-396 334,-396"/>
<text text-anchor="middle" x="299" y="-375.5" font-family="sans" font-size="10.00" fill="#000000">samtools_index</text>
</g>
<!-- 1&#45;&gt;10 -->
<g id="edge15" class="edge">
<title>1&#45;&gt;10</title>
<path fill="none" stroke="#c0c0c0" stroke-width="2" d="M187.599,-431.8314C207.3497,-422.2874 231.7297,-410.5065 252.6417,-400.4013"/>
<polygon fill="#c0c0c0" stroke="#c0c0c0" stroke-width="2" points="254.1903,-403.5403 261.6714,-396.038 251.1447,-397.2376 254.1903,-403.5403"/>
</g>
<!-- 2&#45;&gt;0 -->
<g id="edge3" class="edge">
<title>2&#45;&gt;0</title>
<path fill="none" stroke="#c0c0c0" stroke-width="2" d="M80.5612,-215.6617C84.1751,-197.4275 90.0678,-168.6886 96,-144 104.1418,-110.1154 114.7734,-71.4642 121.964,-46.0058"/>
<polygon fill="#c0c0c0" stroke="#c0c0c0" stroke-width="2" points="125.3606,-46.857 124.7247,-36.2812 118.6267,-44.9453 125.3606,-46.857"/>
</g>
<!-- 3 -->
<g id="node4" class="node">
<title>3</title>
<path fill="none" stroke="#56d8a9" stroke-width="2" d="M147,-180C147,-180 117,-180 117,-180 111,-180 105,-174 105,-168 105,-168 105,-156 105,-156 105,-150 111,-144 117,-144 117,-144 147,-144 147,-144 153,-144 159,-150 159,-156 159,-156 159,-168 159,-168 159,-174 153,-180 147,-180"/>
<text text-anchor="middle" x="132" y="-159.5" font-family="sans" font-size="10.00" fill="#000000">multiqc</text>
</g>
<!-- 3&#45;&gt;0 -->
<g id="edge2" class="edge">
<title>3&#45;&gt;0</title>
<path fill="none" stroke="#c0c0c0" stroke-width="2" d="M131.7467,-143.7623C131.4056,-119.201 130.7951,-75.2474 130.3938,-46.3541"/>
<polygon fill="#c0c0c0" stroke="#c0c0c0" stroke-width="2" points="133.8899,-46.04 130.2512,-36.0896 126.8906,-46.1373 133.8899,-46.04"/>
</g>
<!-- 4 -->
<g id="node5" class="node">
<title>4</title>
<path fill="none" stroke="#80d856" stroke-width="2" d="M257,-180C257,-180 189,-180 189,-180 183,-180 177,-174 177,-168 177,-168 177,-156 177,-156 177,-150 183,-144 189,-144 189,-144 257,-144 257,-144 263,-144 269,-150 269,-156 269,-156 269,-168 269,-168 269,-174 263,-180 257,-180"/>
<text text-anchor="middle" x="223" y="-159.5" font-family="sans" font-size="10.00" fill="#000000">bcftools_merge</text>
</g>
<!-- 4&#45;&gt;0 -->
<g id="edge1" class="edge">
<title>4&#45;&gt;0</title>
<path fill="none" stroke="#c0c0c0" stroke-width="2" d="M210.5629,-143.5764C203.5779,-133.1714 194.7361,-119.904 187,-108 173.2684,-86.8704 158.0074,-62.7384 146.7345,-44.7852"/>
<polygon fill="#c0c0c0" stroke="#c0c0c0" stroke-width="2" points="149.5095,-42.6222 141.2324,-36.0087 143.5787,-46.3405 149.5095,-42.6222"/>
</g>
<!-- 5 -->
<g id="node6" class="node">
<title>5</title>
<path fill="none" stroke="#5682d8" stroke-width="2" d="M238,-108C238,-108 208,-108 208,-108 202,-108 196,-102 196,-96 196,-96 196,-84 196,-84 196,-78 202,-72 208,-72 208,-72 238,-72 238,-72 244,-72 250,-78 250,-84 250,-84 250,-96 250,-96 250,-102 244,-108 238,-108"/>
<text text-anchor="middle" x="223" y="-87.5" font-family="sans" font-size="10.00" fill="#000000">snpeff</text>
</g>
<!-- 4&#45;&gt;5 -->
<g id="edge10" class="edge">
<title>4&#45;&gt;5</title>
<path fill="none" stroke="#c0c0c0" stroke-width="2" d="M223,-143.8314C223,-136.131 223,-126.9743 223,-118.4166"/>
<polygon fill="#c0c0c0" stroke="#c0c0c0" stroke-width="2" points="226.5001,-118.4132 223,-108.4133 219.5001,-118.4133 226.5001,-118.4132"/>
</g>
<!-- 5&#45;&gt;0 -->
<g id="edge5" class="edge">
<title>5&#45;&gt;0</title>
<path fill="none" stroke="#c0c0c0" stroke-width="2" d="M199.5322,-71.8314C187.9673,-62.8779 173.8596,-51.9558 161.3817,-42.2955"/>
<polygon fill="#c0c0c0" stroke="#c0c0c0" stroke-width="2" points="163.5102,-39.5171 153.4603,-36.1628 159.225,-45.0521 163.5102,-39.5171"/>
</g>
<!-- 6 -->
<g id="node7" class="node">
<title>6</title>
<path fill="none" stroke="#d6d856" stroke-width="2" d="M165,-540C165,-540 135,-540 135,-540 129,-540 123,-534 123,-528 123,-528 123,-516 123,-516 123,-510 129,-504 135,-504 135,-504 165,-504 165,-504 171,-504 177,-510 177,-516 177,-516 177,-528 177,-528 177,-534 171,-540 165,-540"/>
<text text-anchor="middle" x="150" y="-519.5" font-family="sans" font-size="10.00" fill="#000000">gem3</text>
</g>
<!-- 6&#45;&gt;1 -->
<g id="edge6" class="edge">
<title>6&#45;&gt;1</title>
<path fill="none" stroke="#c0c0c0" stroke-width="2" d="M150,-503.8314C150,-496.131 150,-486.9743 150,-478.4166"/>
<polygon fill="#c0c0c0" stroke="#c0c0c0" stroke-width="2" points="153.5001,-478.4132 150,-468.4133 146.5001,-478.4133 153.5001,-478.4132"/>
</g>
<!-- 7&#45;&gt;3 -->
<g id="edge8" class="edge">
<title>7&#45;&gt;3</title>
<path fill="none" stroke="#c0c0c0" stroke-width="2" d="M148.4963,-359.9555C145.3595,-322.3144 138.0989,-235.1867 134.3437,-190.1246"/>
<polygon fill="#c0c0c0" stroke="#c0c0c0" stroke-width="2" points="137.8305,-189.8198 133.5121,-180.1451 130.8547,-190.4012 137.8305,-189.8198"/>
</g>
<!-- 8 -->
<g id="node9" class="node">
<title>8</title>
<path fill="none" stroke="#59d856" stroke-width="2" d="M239,-252C239,-252 209,-252 209,-252 203,-252 197,-246 197,-240 197,-240 197,-228 197,-228 197,-222 203,-216 209,-216 209,-216 239,-216 239,-216 245,-216 251,-222 251,-228 251,-228 251,-240 251,-240 251,-246 245,-252 239,-252"/>
<text text-anchor="middle" x="224" y="-231.5" font-family="sans" font-size="10.00" fill="#000000">bgzip</text>
</g>
<!-- 8&#45;&gt;4 -->
<g id="edge9" class="edge">
<title>8&#45;&gt;4</title>
<path fill="none" stroke="#c0c0c0" stroke-width="2" d="M223.7477,-215.8314C223.6407,-208.131 223.5135,-198.9743 223.3947,-190.4166"/>
<polygon fill="#c0c0c0" stroke="#c0c0c0" stroke-width="2" points="226.8944,-190.3637 223.2557,-180.4133 219.8951,-190.4609 226.8944,-190.3637"/>
</g>
<!-- 9&#45;&gt;8 -->
<g id="edge12" class="edge">
<title>9&#45;&gt;8</title>
<path fill="none" stroke="#c0c0c0" stroke-width="2" d="M224,-287.8314C224,-280.131 224,-270.9743 224,-262.4166"/>
<polygon fill="#c0c0c0" stroke="#c0c0c0" stroke-width="2" points="227.5001,-262.4132 224,-252.4133 220.5001,-262.4133 227.5001,-262.4132"/>
</g>
<!-- 10&#45;&gt;9 -->
<g id="edge13" class="edge">
<title>10&#45;&gt;9</title>
<path fill="none" stroke="#c0c0c0" stroke-width="2" d="M280.0743,-359.8314C271.0143,-351.1337 260.0191,-340.5783 250.1735,-331.1265"/>
<polygon fill="#c0c0c0" stroke="#c0c0c0" stroke-width="2" points="252.5574,-328.5633 242.9196,-324.1628 247.7096,-333.613 252.5574,-328.5633"/>
</g>
</g>
</svg>
