<svg height='300px' width='300px'  fill="#32691e" xmlns="http://www.w3.org/2000/svg" xmlns:xlink="http://www.w3.org/1999/xlink" version="1.1" x="0px" y="0px" viewBox="0 0 100 100" style="enable-background:new 0 0 100 100;" xml:space="preserve"><path d="M93,73h-9V50c0-1.1-0.9-2-2-2H52V27h9c1.1,0,2-0.9,2-2V7c0-1.1-0.9-2-2-2H39c-1.1,0-2,0.9-2,2v18c0,1.1,0.9,2,2,2h9v21H18  c-1.1,0-2,0.9-2,2v23H7c-1.1,0-2,0.9-2,2v18c0,1.1,0.9,2,2,2h22c1.1,0,2-0.9,2-2V75c0-1.1-0.9-2-2-2h-9V52h28v21h-9  c-1.1,0-2,0.9-2,2v18c0,1.1,0.9,2,2,2h22c1.1,0,2-0.9,2-2V75c0-1.1-0.9-2-2-2h-9V52h28v21h-9c-1.1,0-2,0.9-2,2v18c0,1.1,0.9,2,2,2  h22c1.1,0,2-0.9,2-2V75C95,73.9,94.1,73,93,73z"></path></svg>