<?xml version="1.0" encoding="UTF-8" standalone="no"?>
<!DOCTYPE svg PUBLIC "-//W3C//DTD SVG 1.1//EN"
 "http://www.w3.org/Graphics/SVG/1.1/DTD/svg11.dtd">
<!-- Generated by graphviz version 2.40.1 (20161225.0304)
 -->
<!-- Title: snakemake_dag Pages: 1 -->
<svg width="217pt" height="764pt"
 viewBox="0.00 0.00 217.00 764.00" xmlns="http://www.w3.org/2000/svg" xmlns:xlink="http://www.w3.org/1999/xlink">
<g id="graph0" class="graph" transform="scale(1 1) rotate(0) translate(4 760)">
<title>snakemake_dag</title>
<polygon fill="#ffffff" stroke="transparent" points="-4,4 -4,-760 213,-760 213,4 -4,4"/>
<!-- 0 -->
<g id="node1" class="node">
<title>0</title>
<path fill="none" stroke="#b6d856" stroke-width="2" d="M109,-36C109,-36 79,-36 79,-36 73,-36 67,-30 67,-24 67,-24 67,-12 67,-12 67,-6 73,0 79,0 79,0 109,0 109,0 115,0 121,-6 121,-12 121,-12 121,-24 121,-24 121,-30 115,-36 109,-36"/>
<text text-anchor="middle" x="94" y="-15.5" font-family="sans" font-size="10.00" fill="#000000">all</text>
</g>
<!-- 1 -->
<g id="node2" class="node">
<title>1</title>
<path fill="none" stroke="#d85656" stroke-width="2" d="M86,-612C86,-612 12,-612 12,-612 6,-612 0,-606 0,-600 0,-600 0,-588 0,-588 0,-582 6,-576 12,-576 12,-576 86,-576 86,-576 92,-576 98,-582 98,-588 98,-588 98,-600 98,-600 98,-606 92,-612 86,-612"/>
<text text-anchor="middle" x="49" y="-591.5" font-family="sans" font-size="10.00" fill="#000000">mark_duplicates</text>
</g>
<!-- 1&#45;&gt;0 -->
<g id="edge1" class="edge">
<title>1&#45;&gt;0</title>
<path fill="none" stroke="#c0c0c0" stroke-width="2" d="M50.4504,-575.8284C52.5007,-548.5296 56,-495.3034 56,-450 56,-450 56,-450 56,-162 56,-120.3681 71.0328,-74.14 82.1881,-45.567"/>
<polygon fill="#c0c0c0" stroke="#c0c0c0" stroke-width="2" points="85.4578,-46.817 85.9412,-36.2332 78.9632,-44.2055 85.4578,-46.817"/>
</g>
<!-- 2 -->
<g id="node3" class="node">
<title>2</title>
<path fill="none" stroke="#d6d856" stroke-width="2" d="M164,-108C164,-108 134,-108 134,-108 128,-108 122,-102 122,-96 122,-96 122,-84 122,-84 122,-78 128,-72 134,-72 134,-72 164,-72 164,-72 170,-72 176,-78 176,-84 176,-84 176,-96 176,-96 176,-102 170,-108 164,-108"/>
<text text-anchor="middle" x="149" y="-87.5" font-family="sans" font-size="10.00" fill="#000000">snpeff</text>
</g>
<!-- 2&#45;&gt;0 -->
<g id="edge2" class="edge">
<title>2&#45;&gt;0</title>
<path fill="none" stroke="#c0c0c0" stroke-width="2" d="M135.1212,-71.8314C128.7864,-63.5386 121.1616,-53.557 114.2074,-44.4533"/>
<polygon fill="#c0c0c0" stroke="#c0c0c0" stroke-width="2" points="116.9175,-42.2353 108.0657,-36.4133 111.3548,-46.4847 116.9175,-42.2353"/>
</g>
<!-- 3 -->
<g id="node4" class="node">
<title>3</title>
<path fill="none" stroke="#569ad8" stroke-width="2" d="M175,-180C175,-180 123,-180 123,-180 117,-180 111,-174 111,-168 111,-168 111,-156 111,-156 111,-150 117,-144 123,-144 123,-144 175,-144 175,-144 181,-144 187,-150 187,-156 187,-156 187,-168 187,-168 187,-174 181,-180 175,-180"/>
<text text-anchor="middle" x="149" y="-159.5" font-family="sans" font-size="10.00" fill="#000000">merge_calls</text>
</g>
<!-- 3&#45;&gt;0 -->
<g id="edge3" class="edge">
<title>3&#45;&gt;0</title>
<path fill="none" stroke="#c0c0c0" stroke-width="2" d="M134.1147,-143.5185C126.7538,-133.5296 118.328,-120.6716 113,-108 104.6694,-88.1876 99.8467,-64.3321 97.1459,-46.1605"/>
<polygon fill="#c0c0c0" stroke="#c0c0c0" stroke-width="2" points="100.6059,-45.6289 95.7905,-36.1917 93.6698,-46.5721 100.6059,-45.6289"/>
</g>
<!-- 3&#45;&gt;2 -->
<g id="edge5" class="edge">
<title>3&#45;&gt;2</title>
<path fill="none" stroke="#c0c0c0" stroke-width="2" d="M149,-143.8314C149,-136.131 149,-126.9743 149,-118.4166"/>
<polygon fill="#c0c0c0" stroke="#c0c0c0" stroke-width="2" points="152.5001,-118.4132 149,-108.4133 145.5001,-118.4133 152.5001,-118.4132"/>
</g>
<!-- 4 -->
<g id="node5" class="node">
<title>4</title>
<path fill="none" stroke="#78d856" stroke-width="2" d="M110.5,-756C110.5,-756 63.5,-756 63.5,-756 57.5,-756 51.5,-750 51.5,-744 51.5,-744 51.5,-732 51.5,-732 51.5,-726 57.5,-720 63.5,-720 63.5,-720 110.5,-720 110.5,-720 116.5,-720 122.5,-726 122.5,-732 122.5,-732 122.5,-744 122.5,-744 122.5,-750 116.5,-756 110.5,-756"/>
<text text-anchor="middle" x="87" y="-735.5" font-family="sans" font-size="10.00" fill="#000000">map_reads</text>
</g>
<!-- 4&#45;&gt;1 -->
<g id="edge4" class="edge">
<title>4&#45;&gt;1</title>
<path fill="none" stroke="#c0c0c0" stroke-width="2" d="M82.1873,-719.7623C75.6773,-695.0928 64.0047,-650.8598 56.3818,-621.9731"/>
<polygon fill="#c0c0c0" stroke="#c0c0c0" stroke-width="2" points="59.7094,-620.8656 53.7736,-612.0896 52.9411,-622.6517 59.7094,-620.8656"/>
</g>
<!-- 10 -->
<g id="node11" class="node">
<title>10</title>
<path fill="none" stroke="#d8b456" stroke-width="2" d="M183.5,-612C183.5,-612 128.5,-612 128.5,-612 122.5,-612 116.5,-606 116.5,-600 116.5,-600 116.5,-588 116.5,-588 116.5,-582 122.5,-576 128.5,-576 128.5,-576 183.5,-576 183.5,-576 189.5,-576 195.5,-582 195.5,-588 195.5,-588 195.5,-600 195.5,-600 195.5,-606 189.5,-612 183.5,-612"/>
<text text-anchor="middle" x="156" y="-591.5" font-family="sans" font-size="10.00" fill="#000000">call_variants</text>
</g>
<!-- 4&#45;&gt;10 -->
<g id="edge13" class="edge">
<title>4&#45;&gt;10</title>
<path fill="none" stroke="#c0c0c0" stroke-width="2" d="M87.9949,-719.8016C89.6603,-700.9141 94.1109,-670.9767 106,-648 111.3497,-637.6614 119.2246,-627.8419 127.1497,-619.4817"/>
<polygon fill="#c0c0c0" stroke="#c0c0c0" stroke-width="2" points="129.7875,-621.7932 134.371,-612.2411 124.8312,-616.85 129.7875,-621.7932"/>
</g>
<!-- 11 -->
<g id="node12" class="node">
<title>11</title>
<path fill="none" stroke="#56d87b" stroke-width="2" d="M197,-684C197,-684 127,-684 127,-684 121,-684 115,-678 115,-672 115,-672 115,-660 115,-660 115,-654 121,-648 127,-648 127,-648 197,-648 197,-648 203,-648 209,-654 209,-660 209,-660 209,-672 209,-672 209,-678 203,-684 197,-684"/>
<text text-anchor="middle" x="162" y="-663.5" font-family="sans" font-size="10.00" fill="#000000">samtools_index</text>
</g>
<!-- 4&#45;&gt;11 -->
<g id="edge14" class="edge">
<title>4&#45;&gt;11</title>
<path fill="none" stroke="#c0c0c0" stroke-width="2" d="M105.9257,-719.8314C114.9857,-711.1337 125.9809,-700.5783 135.8265,-691.1265"/>
<polygon fill="#c0c0c0" stroke="#c0c0c0" stroke-width="2" points="138.2904,-693.613 143.0804,-684.1628 133.4426,-688.5633 138.2904,-693.613"/>
</g>
<!-- 5 -->
<g id="node6" class="node">
<title>5</title>
<path fill="none" stroke="#56d8b9" stroke-width="2" d="M185,-252C185,-252 115,-252 115,-252 109,-252 103,-246 103,-240 103,-240 103,-228 103,-228 103,-222 109,-216 115,-216 115,-216 185,-216 185,-216 191,-216 197,-222 197,-228 197,-228 197,-240 197,-240 197,-246 191,-252 185,-252"/>
<text text-anchor="middle" x="150" y="-231.5" font-family="sans" font-size="10.00" fill="#000000">hard_filter_calls</text>
</g>
<!-- 5&#45;&gt;3 -->
<g id="edge6" class="edge">
<title>5&#45;&gt;3</title>
<path fill="none" stroke="#c0c0c0" stroke-width="2" d="M149.7477,-215.8314C149.6407,-208.131 149.5135,-198.9743 149.3947,-190.4166"/>
<polygon fill="#c0c0c0" stroke="#c0c0c0" stroke-width="2" points="152.8944,-190.3637 149.2557,-180.4133 145.8951,-190.4609 152.8944,-190.3637"/>
</g>
<!-- 6 -->
<g id="node7" class="node">
<title>6</title>
<path fill="none" stroke="#d89556" stroke-width="2" d="M175,-324C175,-324 125,-324 125,-324 119,-324 113,-318 113,-312 113,-312 113,-300 113,-300 113,-294 119,-288 125,-288 125,-288 175,-288 175,-288 181,-288 187,-294 187,-300 187,-300 187,-312 187,-312 187,-318 181,-324 175,-324"/>
<text text-anchor="middle" x="150" y="-303.5" font-family="sans" font-size="10.00" fill="#000000">select_calls</text>
</g>
<!-- 6&#45;&gt;5 -->
<g id="edge7" class="edge">
<title>6&#45;&gt;5</title>
<path fill="none" stroke="#c0c0c0" stroke-width="2" d="M150,-287.8314C150,-280.131 150,-270.9743 150,-262.4166"/>
<polygon fill="#c0c0c0" stroke="#c0c0c0" stroke-width="2" points="153.5001,-262.4132 150,-252.4133 146.5001,-262.4133 153.5001,-262.4132"/>
</g>
<!-- 7 -->
<g id="node8" class="node">
<title>7</title>
<path fill="none" stroke="#59d856" stroke-width="2" d="M187.5,-396C187.5,-396 118.5,-396 118.5,-396 112.5,-396 106.5,-390 106.5,-384 106.5,-384 106.5,-372 106.5,-372 106.5,-366 112.5,-360 118.5,-360 118.5,-360 187.5,-360 187.5,-360 193.5,-360 199.5,-366 199.5,-372 199.5,-372 199.5,-384 199.5,-384 199.5,-390 193.5,-396 187.5,-396"/>
<text text-anchor="middle" x="153" y="-375.5" font-family="sans" font-size="10.00" fill="#000000">merge_variants</text>
</g>
<!-- 7&#45;&gt;6 -->
<g id="edge8" class="edge">
<title>7&#45;&gt;6</title>
<path fill="none" stroke="#c0c0c0" stroke-width="2" d="M152.243,-359.8314C151.9221,-352.131 151.5406,-342.9743 151.184,-334.4166"/>
<polygon fill="#c0c0c0" stroke="#c0c0c0" stroke-width="2" points="154.6806,-334.2589 150.7672,-324.4133 147.6867,-334.5503 154.6806,-334.2589"/>
</g>
<!-- 8 -->
<g id="node9" class="node">
<title>8</title>
<path fill="none" stroke="#567bd8" stroke-width="2" d="M196.5,-468C196.5,-468 113.5,-468 113.5,-468 107.5,-468 101.5,-462 101.5,-456 101.5,-456 101.5,-444 101.5,-444 101.5,-438 107.5,-432 113.5,-432 113.5,-432 196.5,-432 196.5,-432 202.5,-432 208.5,-438 208.5,-444 208.5,-444 208.5,-456 208.5,-456 208.5,-462 202.5,-468 196.5,-468"/>
<text text-anchor="middle" x="155" y="-447.5" font-family="sans" font-size="10.00" fill="#000000">genotype_variants</text>
</g>
<!-- 8&#45;&gt;7 -->
<g id="edge9" class="edge">
<title>8&#45;&gt;7</title>
<path fill="none" stroke="#c0c0c0" stroke-width="2" d="M154.4953,-431.8314C154.2814,-424.131 154.0271,-414.9743 153.7894,-406.4166"/>
<polygon fill="#c0c0c0" stroke="#c0c0c0" stroke-width="2" points="157.2879,-406.3122 153.5115,-396.4133 150.2906,-406.5066 157.2879,-406.3122"/>
</g>
<!-- 9 -->
<g id="node10" class="node">
<title>9</title>
<path fill="none" stroke="#56b9d8" stroke-width="2" d="M186,-540C186,-540 124,-540 124,-540 118,-540 112,-534 112,-528 112,-528 112,-516 112,-516 112,-510 118,-504 124,-504 124,-504 186,-504 186,-504 192,-504 198,-510 198,-516 198,-516 198,-528 198,-528 198,-534 192,-540 186,-540"/>
<text text-anchor="middle" x="155" y="-519.5" font-family="sans" font-size="10.00" fill="#000000">combine_calls</text>
</g>
<!-- 9&#45;&gt;8 -->
<g id="edge10" class="edge">
<title>9&#45;&gt;8</title>
<path fill="none" stroke="#c0c0c0" stroke-width="2" d="M155,-503.8314C155,-496.131 155,-486.9743 155,-478.4166"/>
<polygon fill="#c0c0c0" stroke="#c0c0c0" stroke-width="2" points="158.5001,-478.4132 155,-468.4133 151.5001,-478.4133 158.5001,-478.4132"/>
</g>
<!-- 10&#45;&gt;9 -->
<g id="edge11" class="edge">
<title>10&#45;&gt;9</title>
<path fill="none" stroke="#c0c0c0" stroke-width="2" d="M155.7477,-575.8314C155.6407,-568.131 155.5135,-558.9743 155.3947,-550.4166"/>
<polygon fill="#c0c0c0" stroke="#c0c0c0" stroke-width="2" points="158.8944,-550.3637 155.2557,-540.4133 151.8951,-550.4609 158.8944,-550.3637"/>
</g>
<!-- 11&#45;&gt;10 -->
<g id="edge12" class="edge">
<title>11&#45;&gt;10</title>
<path fill="none" stroke="#c0c0c0" stroke-width="2" d="M160.4859,-647.8314C159.8442,-640.131 159.0812,-630.9743 158.3681,-622.4166"/>
<polygon fill="#c0c0c0" stroke="#c0c0c0" stroke-width="2" points="161.8529,-622.088 157.5344,-612.4133 154.8771,-622.6694 161.8529,-622.088"/>
</g>
</g>
</svg>
