<?xml version="1.0" encoding="UTF-8" standalone="no"?>
<!DOCTYPE svg PUBLIC "-//W3C//DTD SVG 1.1//EN"
 "http://www.w3.org/Graphics/SVG/1.1/DTD/svg11.dtd">
<!-- Generated by graphviz version 2.40.1 (20161225.0304)
 -->
<!-- Title: snakemake_dag Pages: 1 -->
<svg width="500pt" height="412pt"
 viewBox="0.00 0.00 499.75 412.00" xmlns="http://www.w3.org/2000/svg" xmlns:xlink="http://www.w3.org/1999/xlink">
<g id="graph0" class="graph" transform="scale(1 1) rotate(0) translate(4 408)">
<title>snakemake_dag</title>
<polygon fill="#ffffff" stroke="transparent" points="-4,4 -4,-408 495.7492,-408 495.7492,4 -4,4"/>
<!-- 0 -->
<g id="node1" class="node">
<title>0</title>
<path fill="none" stroke="#56d89a" stroke-width="2" stroke-dasharray="5,2" d="M161.9867,-36C161.9867,-36 131.9867,-36 131.9867,-36 125.9867,-36 119.9867,-30 119.9867,-24 119.9867,-24 119.9867,-12 119.9867,-12 119.9867,-6 125.9867,0 131.9867,0 131.9867,0 161.9867,0 161.9867,0 167.9867,0 173.9867,-6 173.9867,-12 173.9867,-12 173.9867,-24 173.9867,-24 173.9867,-30 167.9867,-36 161.9867,-36"/>
<text text-anchor="middle" x="146.9867" y="-15" font-family="sans" font-size="10.00" fill="#000000">snpeff</text>
</g>
<!-- 1 -->
<g id="node2" class="node">
<title>1</title>
<path fill="none" stroke="#d88556" stroke-width="2" stroke-dasharray="5,2" d="M174.188,-108C174.188,-108 119.7855,-108 119.7855,-108 113.7855,-108 107.7855,-102 107.7855,-96 107.7855,-96 107.7855,-84 107.7855,-84 107.7855,-78 113.7855,-72 119.7855,-72 119.7855,-72 174.188,-72 174.188,-72 180.188,-72 186.188,-78 186.188,-84 186.188,-84 186.188,-96 186.188,-96 186.188,-102 180.188,-108 174.188,-108"/>
<text text-anchor="middle" x="146.9867" y="-87" font-family="sans" font-size="10.00" fill="#000000">bcftools_merge</text>
</g>
<!-- 1&#45;&gt;0 -->
<g id="edge1" class="edge">
<title>1&#45;&gt;0</title>
<path fill="none" stroke="#c0c0c0" stroke-width="2" d="M146.9867,-71.8314C146.9867,-64.131 146.9867,-54.9743 146.9867,-46.4166"/>
<polygon fill="#c0c0c0" stroke="#c0c0c0" stroke-width="2" points="150.4868,-46.4132 146.9867,-36.4133 143.4868,-46.4133 150.4868,-46.4132"/>
</g>
<!-- 2 -->
<g id="node3" class="node">
<title>2</title>
<path fill="none" stroke="#56b1d8" stroke-width="2" stroke-dasharray="5,2" d="M126.5159,-180C126.5159,-180 59.4575,-180 59.4575,-180 53.4575,-180 47.4575,-174 47.4575,-168 47.4575,-168 47.4575,-156 47.4575,-156 47.4575,-150 53.4575,-144 59.4575,-144 59.4575,-144 126.5159,-144 126.5159,-144 132.5159,-144 138.5159,-150 138.5159,-156 138.5159,-156 138.5159,-168 138.5159,-168 138.5159,-174 132.5159,-180 126.5159,-180"/>
<text text-anchor="middle" x="92.9867" y="-165" font-family="sans" font-size="10.00" fill="#000000">bgzip</text>
<text text-anchor="middle" x="92.9867" y="-153" font-family="sans" font-size="10.00" fill="#000000">prefix: called/A.21</text>
</g>
<!-- 2&#45;&gt;1 -->
<g id="edge2" class="edge">
<title>2&#45;&gt;1</title>
<path fill="none" stroke="#c0c0c0" stroke-width="2" d="M106.6132,-143.8314C112.8327,-135.5386 120.3189,-125.557 127.1467,-116.4533"/>
<polygon fill="#c0c0c0" stroke="#c0c0c0" stroke-width="2" points="129.9767,-118.5133 133.1768,-108.4133 124.3767,-114.3133 129.9767,-118.5133"/>
</g>
<!-- 3 -->
<g id="node4" class="node">
<title>3</title>
<path fill="none" stroke="#56b1d8" stroke-width="2" stroke-dasharray="5,2" d="M269.4647,-180C269.4647,-180 202.5087,-180 202.5087,-180 196.5087,-180 190.5087,-174 190.5087,-168 190.5087,-168 190.5087,-156 190.5087,-156 190.5087,-150 196.5087,-144 202.5087,-144 202.5087,-144 269.4647,-144 269.4647,-144 275.4647,-144 281.4647,-150 281.4647,-156 281.4647,-156 281.4647,-168 281.4647,-168 281.4647,-174 275.4647,-180 269.4647,-180"/>
<text text-anchor="middle" x="235.9867" y="-165" font-family="sans" font-size="10.00" fill="#000000">bgzip</text>
<text text-anchor="middle" x="235.9867" y="-153" font-family="sans" font-size="10.00" fill="#000000">prefix: called/B.21</text>
</g>
<!-- 3&#45;&gt;1 -->
<g id="edge3" class="edge">
<title>3&#45;&gt;1</title>
<path fill="none" stroke="#c0c0c0" stroke-width="2" d="M213.5283,-143.8314C202.5662,-134.9632 189.2168,-124.1637 177.3602,-114.5718"/>
<polygon fill="#c0c0c0" stroke="#c0c0c0" stroke-width="2" points="179.4138,-111.7313 169.438,-108.1628 175.0112,-117.1734 179.4138,-111.7313"/>
</g>
<!-- 4 -->
<g id="node5" class="node">
<title>4</title>
<path fill="none" stroke="#d85656" stroke-width="2" stroke-dasharray="5,2" d="M96.6386,-252C96.6386,-252 53.3348,-252 53.3348,-252 47.3348,-252 41.3348,-246 41.3348,-240 41.3348,-240 41.3348,-228 41.3348,-228 41.3348,-222 47.3348,-216 53.3348,-216 53.3348,-216 96.6386,-216 96.6386,-216 102.6386,-216 108.6386,-222 108.6386,-228 108.6386,-228 108.6386,-240 108.6386,-240 108.6386,-246 102.6386,-252 96.6386,-252"/>
<text text-anchor="middle" x="74.9867" y="-237" font-family="sans" font-size="10.00" fill="#000000">bcftools_call</text>
<text text-anchor="middle" x="74.9867" y="-225" font-family="sans" font-size="10.00" fill="#000000">contig: 21</text>
</g>
<!-- 4&#45;&gt;2 -->
<g id="edge4" class="edge">
<title>4&#45;&gt;2</title>
<path fill="none" stroke="#c0c0c0" stroke-width="2" d="M79.5289,-215.8314C81.4751,-208.0463 83.7935,-198.7729 85.953,-190.1347"/>
<polygon fill="#c0c0c0" stroke="#c0c0c0" stroke-width="2" points="89.3535,-190.9636 88.3834,-180.4133 82.5625,-189.2658 89.3535,-190.9636"/>
</g>
<!-- 5 -->
<g id="node6" class="node">
<title>5</title>
<path fill="none" stroke="#d85656" stroke-width="2" stroke-dasharray="5,2" d="M274.6386,-252C274.6386,-252 231.3348,-252 231.3348,-252 225.3348,-252 219.3348,-246 219.3348,-240 219.3348,-240 219.3348,-228 219.3348,-228 219.3348,-222 225.3348,-216 231.3348,-216 231.3348,-216 274.6386,-216 274.6386,-216 280.6386,-216 286.6386,-222 286.6386,-228 286.6386,-228 286.6386,-240 286.6386,-240 286.6386,-246 280.6386,-252 274.6386,-252"/>
<text text-anchor="middle" x="252.9867" y="-237" font-family="sans" font-size="10.00" fill="#000000">bcftools_call</text>
<text text-anchor="middle" x="252.9867" y="-225" font-family="sans" font-size="10.00" fill="#000000">contig: 21</text>
</g>
<!-- 5&#45;&gt;3 -->
<g id="edge5" class="edge">
<title>5&#45;&gt;3</title>
<path fill="none" stroke="#c0c0c0" stroke-width="2" d="M248.6969,-215.8314C246.8787,-208.131 244.7168,-198.9743 242.6962,-190.4166"/>
<polygon fill="#c0c0c0" stroke="#c0c0c0" stroke-width="2" points="246.0386,-189.3414 240.3343,-180.4133 239.2259,-190.95 246.0386,-189.3414"/>
</g>
<!-- 6 -->
<g id="node7" class="node">
<title>6</title>
<path fill="none" stroke="#ced856" stroke-width="2" stroke-dasharray="5,2" d="M48.8015,-404C48.8015,-404 13.1719,-404 13.1719,-404 7.1719,-404 1.1719,-398 1.1719,-392 1.1719,-392 1.1719,-372 1.1719,-372 1.1719,-366 7.1719,-360 13.1719,-360 13.1719,-360 48.8015,-360 48.8015,-360 54.8015,-360 60.8015,-366 60.8015,-372 60.8015,-372 60.8015,-392 60.8015,-392 60.8015,-398 54.8015,-404 48.8015,-404"/>
<text text-anchor="middle" x="30.9867" y="-391" font-family="sans" font-size="10.00" fill="#000000">map_reads</text>
<text text-anchor="middle" x="30.9867" y="-379" font-family="sans" font-size="10.00" fill="#000000">sample: A</text>
<text text-anchor="middle" x="30.9867" y="-367" font-family="sans" font-size="10.00" fill="#000000">unit: 1</text>
</g>
<!-- 6&#45;&gt;4 -->
<g id="edge6" class="edge">
<title>6&#45;&gt;4</title>
<path fill="none" stroke="#c0c0c0" stroke-width="2" d="M16.1969,-359.8853C5.0777,-340.2846 -6.4414,-311.2494 4.9867,-288 11.0836,-275.5965 21.5521,-265.2376 32.5625,-257.0196"/>
<polygon fill="#c0c0c0" stroke="#c0c0c0" stroke-width="2" points="34.7997,-259.7275 41.0245,-251.1541 30.8119,-253.9744 34.7997,-259.7275"/>
</g>
<!-- 7 -->
<g id="node8" class="node">
<title>7</title>
<path fill="none" stroke="#9fd856" stroke-width="2" stroke-dasharray="5,2" d="M124.0617,-324C124.0617,-324 25.9117,-324 25.9117,-324 19.9117,-324 13.9117,-318 13.9117,-312 13.9117,-312 13.9117,-300 13.9117,-300 13.9117,-294 19.9117,-288 25.9117,-288 25.9117,-288 124.0617,-288 124.0617,-288 130.0617,-288 136.0617,-294 136.0617,-300 136.0617,-300 136.0617,-312 136.0617,-312 136.0617,-318 130.0617,-324 124.0617,-324"/>
<text text-anchor="middle" x="74.9867" y="-309" font-family="sans" font-size="10.00" fill="#000000">samtools_index</text>
<text text-anchor="middle" x="74.9867" y="-297" font-family="sans" font-size="10.00" fill="#000000">prefix: mapped/A&#45;1.sorted</text>
</g>
<!-- 6&#45;&gt;7 -->
<g id="edge12" class="edge">
<title>6&#45;&gt;7</title>
<path fill="none" stroke="#c0c0c0" stroke-width="2" d="M43.9502,-359.6086C48.7666,-351.2893 54.2824,-341.7621 59.3152,-333.069"/>
<polygon fill="#c0c0c0" stroke="#c0c0c0" stroke-width="2" points="62.3541,-334.8054 64.3355,-324.3975 56.2961,-331.2981 62.3541,-334.8054"/>
</g>
<!-- 7&#45;&gt;4 -->
<g id="edge7" class="edge">
<title>7&#45;&gt;4</title>
<path fill="none" stroke="#c0c0c0" stroke-width="2" d="M74.9867,-287.8314C74.9867,-280.131 74.9867,-270.9743 74.9867,-262.4166"/>
<polygon fill="#c0c0c0" stroke="#c0c0c0" stroke-width="2" points="78.4868,-262.4132 74.9867,-252.4133 71.4868,-262.4133 78.4868,-262.4132"/>
</g>
<!-- 8 -->
<g id="node9" class="node">
<title>8</title>
<path fill="none" stroke="#ced856" stroke-width="2" stroke-dasharray="5,2" d="M225.8015,-404C225.8015,-404 190.1719,-404 190.1719,-404 184.1719,-404 178.1719,-398 178.1719,-392 178.1719,-392 178.1719,-372 178.1719,-372 178.1719,-366 184.1719,-360 190.1719,-360 190.1719,-360 225.8015,-360 225.8015,-360 231.8015,-360 237.8015,-366 237.8015,-372 237.8015,-372 237.8015,-392 237.8015,-392 237.8015,-398 231.8015,-404 225.8015,-404"/>
<text text-anchor="middle" x="207.9867" y="-391" font-family="sans" font-size="10.00" fill="#000000">map_reads</text>
<text text-anchor="middle" x="207.9867" y="-379" font-family="sans" font-size="10.00" fill="#000000">sample: B</text>
<text text-anchor="middle" x="207.9867" y="-367" font-family="sans" font-size="10.00" fill="#000000">unit: 1</text>
</g>
<!-- 8&#45;&gt;5 -->
<g id="edge8" class="edge">
<title>8&#45;&gt;5</title>
<path fill="none" stroke="#c0c0c0" stroke-width="2" d="M193.5672,-359.855C182.7452,-340.2344 171.5893,-311.187 182.9867,-288 189.0836,-275.5965 199.5521,-265.2376 210.5625,-257.0196"/>
<polygon fill="#c0c0c0" stroke="#c0c0c0" stroke-width="2" points="212.7997,-259.7275 219.0245,-251.1541 208.8119,-253.9744 212.7997,-259.7275"/>
</g>
<!-- 10 -->
<g id="node11" class="node">
<title>10</title>
<path fill="none" stroke="#9fd856" stroke-width="2" stroke-dasharray="5,2" d="M301.5126,-324C301.5126,-324 204.4608,-324 204.4608,-324 198.4608,-324 192.4608,-318 192.4608,-312 192.4608,-312 192.4608,-300 192.4608,-300 192.4608,-294 198.4608,-288 204.4608,-288 204.4608,-288 301.5126,-288 301.5126,-288 307.5126,-288 313.5126,-294 313.5126,-300 313.5126,-300 313.5126,-312 313.5126,-312 313.5126,-318 307.5126,-324 301.5126,-324"/>
<text text-anchor="middle" x="252.9867" y="-309" font-family="sans" font-size="10.00" fill="#000000">samtools_index</text>
<text text-anchor="middle" x="252.9867" y="-297" font-family="sans" font-size="10.00" fill="#000000">prefix: mapped/B&#45;1.sorted</text>
</g>
<!-- 8&#45;&gt;10 -->
<g id="edge13" class="edge">
<title>8&#45;&gt;10</title>
<path fill="none" stroke="#c0c0c0" stroke-width="2" d="M221.2448,-359.6086C226.1707,-351.2893 231.8118,-341.7621 236.959,-333.069"/>
<polygon fill="#c0c0c0" stroke="#c0c0c0" stroke-width="2" points="240.0102,-334.7855 242.0935,-324.3975 233.9868,-331.219 240.0102,-334.7855"/>
</g>
<!-- 9 -->
<g id="node10" class="node">
<title>9</title>
<path fill="none" stroke="#ced856" stroke-width="2" stroke-dasharray="5,2" d="M403.8015,-404C403.8015,-404 368.1719,-404 368.1719,-404 362.1719,-404 356.1719,-398 356.1719,-392 356.1719,-392 356.1719,-372 356.1719,-372 356.1719,-366 362.1719,-360 368.1719,-360 368.1719,-360 403.8015,-360 403.8015,-360 409.8015,-360 415.8015,-366 415.8015,-372 415.8015,-372 415.8015,-392 415.8015,-392 415.8015,-398 409.8015,-404 403.8015,-404"/>
<text text-anchor="middle" x="385.9867" y="-391" font-family="sans" font-size="10.00" fill="#000000">map_reads</text>
<text text-anchor="middle" x="385.9867" y="-379" font-family="sans" font-size="10.00" fill="#000000">sample: B</text>
<text text-anchor="middle" x="385.9867" y="-367" font-family="sans" font-size="10.00" fill="#000000">unit: 2</text>
</g>
<!-- 9&#45;&gt;5 -->
<g id="edge9" class="edge">
<title>9&#45;&gt;5</title>
<path fill="none" stroke="#c0c0c0" stroke-width="2" d="M373.796,-359.6456C362.2554,-339.6224 343.6554,-310.0937 322.9867,-288 312.8615,-277.1767 300.4153,-266.8355 288.8395,-258.1525"/>
<polygon fill="#c0c0c0" stroke="#c0c0c0" stroke-width="2" points="290.7494,-255.2133 280.6101,-252.1399 286.6198,-260.8654 290.7494,-255.2133"/>
</g>
<!-- 11 -->
<g id="node12" class="node">
<title>11</title>
<path fill="none" stroke="#9fd856" stroke-width="2" stroke-dasharray="5,2" d="M479.5126,-324C479.5126,-324 382.4608,-324 382.4608,-324 376.4608,-324 370.4608,-318 370.4608,-312 370.4608,-312 370.4608,-300 370.4608,-300 370.4608,-294 376.4608,-288 382.4608,-288 382.4608,-288 479.5126,-288 479.5126,-288 485.5126,-288 491.5126,-294 491.5126,-300 491.5126,-300 491.5126,-312 491.5126,-312 491.5126,-318 485.5126,-324 479.5126,-324"/>
<text text-anchor="middle" x="430.9867" y="-309" font-family="sans" font-size="10.00" fill="#000000">samtools_index</text>
<text text-anchor="middle" x="430.9867" y="-297" font-family="sans" font-size="10.00" fill="#000000">prefix: mapped/B&#45;2.sorted</text>
</g>
<!-- 9&#45;&gt;11 -->
<g id="edge14" class="edge">
<title>9&#45;&gt;11</title>
<path fill="none" stroke="#c0c0c0" stroke-width="2" d="M399.2448,-359.6086C404.1707,-351.2893 409.8118,-341.7621 414.959,-333.069"/>
<polygon fill="#c0c0c0" stroke="#c0c0c0" stroke-width="2" points="418.0102,-334.7855 420.0935,-324.3975 411.9868,-331.219 418.0102,-334.7855"/>
</g>
<!-- 10&#45;&gt;5 -->
<g id="edge10" class="edge">
<title>10&#45;&gt;5</title>
<path fill="none" stroke="#c0c0c0" stroke-width="2" d="M252.9867,-287.8314C252.9867,-280.131 252.9867,-270.9743 252.9867,-262.4166"/>
<polygon fill="#c0c0c0" stroke="#c0c0c0" stroke-width="2" points="256.4868,-262.4132 252.9867,-252.4133 249.4868,-262.4133 256.4868,-262.4132"/>
</g>
<!-- 11&#45;&gt;5 -->
<g id="edge11" class="edge">
<title>11&#45;&gt;5</title>
<path fill="none" stroke="#c0c0c0" stroke-width="2" d="M386.0698,-287.8314C358.4314,-276.6518 323.2049,-262.4028 295.9376,-251.3734"/>
<polygon fill="#c0c0c0" stroke="#c0c0c0" stroke-width="2" points="297.233,-248.1219 286.6502,-247.6167 294.6081,-254.6112 297.233,-248.1219"/>
</g>
</g>
</svg>
