<svg height='300px' width='300px'  fill="#704214" xmlns="http://www.w3.org/2000/svg" xmlns:xlink="http://www.w3.org/1999/xlink" version="1.1" x="0px" y="0px" viewBox="0 0 80 80" enable-background="new 0 0 80 80" xml:space="preserve"><g><circle fill="#704214" cx="41" cy="41" r="18"></circle></g><g><g><path fill="#704214" d="M40,31.8v-1.4h2.3v1.4c2,0.4,3.1,2,3.1,4.4v0.6h-2.7v-0.8c0-1.3-0.5-1.8-1.4-1.8c-0.9,0-1.4,0.5-1.4,1.8    c0,3.7,5.6,3.9,5.6,9.1c0,2.5-1.1,4.1-3.1,4.5V51H40v-1.3c-2.1-0.4-3.1-2-3.1-4.5V44h2.7v1.4c0,1.3,0.6,1.8,1.5,1.8    s1.5-0.5,1.5-1.8c0-3.7-5.6-3.9-5.6-9.1C37,33.8,38,32.3,40,31.8z"></path></g></g></svg>