<svg height='300px' width='300px'  fill="#704214" xmlns="http://www.w3.org/2000/svg" xmlns:xlink="http://www.w3.org/1999/xlink" version="1.1" x="0px" y="0px" viewBox="0 0 100 100" enable-background="new 0 0 100 100" xml:space="preserve"><g><g><path d="M70,24.976V8.333C70,6.493,68.508,5,66.667,5s-3.334,1.493-3.334,3.333v3.74H36.667v-3.74C36.667,6.493,35.174,5,33.333,5    S30,6.493,30,8.333v16.642c0,9.308,4.972,18.037,14.11,24.962C34.972,56.865,30,65.593,30,74.9v16.767    C30,93.508,31.493,95,33.333,95s3.333-1.492,3.333-3.333v-3.739h26.667v3.739c0,1.841,1.493,3.333,3.334,3.333    S70,93.508,70,91.667V74.9c0-9.308-4.973-18.035-14.111-24.962C65.027,43.013,70,34.284,70,24.976z M36.667,18.74h26.667v3.734    H36.667V18.74z M38.359,32.876c-0.531-1.227-0.938-2.473-1.219-3.735h25.719c-0.281,1.262-0.687,2.509-1.219,3.735H38.359z     M63.333,81.262H36.667v-3.735h26.667V81.262z M61.697,67.124c0.522,1.226,0.915,2.474,1.188,3.735H37.115    c0.272-1.262,0.665-2.51,1.188-3.735H61.697z M57.463,60.457H42.538c2.006-2.329,4.5-4.527,7.462-6.544    C52.961,55.93,55.456,58.128,57.463,60.457z M50,45.963c-2.909-1.981-5.372-4.137-7.36-6.421h14.72    C55.371,41.826,52.908,43.982,50,45.963z"></path></g></g></svg>