<svg height='300px' width='300px'  fill="#704214" xmlns:dc="http://purl.org/dc/elements/1.1/" xmlns:cc="http://creativecommons.org/ns#" xmlns:rdf="http://www.w3.org/1999/02/22-rdf-syntax-ns#" xmlns:svg="http://www.w3.org/2000/svg" xmlns="http://www.w3.org/2000/svg" xmlns:sodipodi="http://sodipodi.sourceforge.net/DTD/sodipodi-0.dtd" xmlns:inkscape="http://www.inkscape.org/namespaces/inkscape" version="1.1" x="0px" y="0px" viewBox="0 0 100 100"><g transform="translate(0,-952.36218)"><path d="m 18.999998,958.36218 c -1.6879,0.0119 -2.9897,1.69053 -3,3 l 0,82.00002 c 2e-4,1.5707 1.4293,2.9998 3,3 l 62.000004,0 c 1.5707,-2e-4 2.9998,-1.4293 3,-3 l 0,-64.00002 c 0,-0.78611 -0.3201,-1.56815 -0.875,-2.125 l -18.000004,-18 c -0.5569,-0.55488 -1.3389,-0.87689 -2.125,-0.875 z m 3,6 38,0 0,15 c 2e-4,1.57076 1.4293,2.99985 3,3 l 15.000004,0 0,58.00002 -56.000004,0 z m 44,4.21875 7.7812,7.78125 -7.7812,0 z m -36,6.78125 c -1.6568,0 -3,1.3431 -3,3 0,1.6568 1.3432,3 3,3 l 22,0 c 1.6569,0 3,-1.3432 3,-3 0,-1.6569 -1.3431,-3 -3,-3 z m 0,16 c -1.6568,0 -3,1.3431 -3,3 0,1.6568 1.3432,3 3,3 l 40,0 c 1.6569,0 3,-1.3432 3,-3 0,-1.6569 -1.3431,-3 -3,-3 z m 0,16.00002 c -1.6568,0 -3,1.3431 -3,3 0,1.6568 1.3432,3 3,3 l 40,0 c 1.6569,0 3,-1.3432 3,-3 0,-1.6569 -1.3431,-3 -3,-3 z m 0,16 c -1.6568,0 -3,1.3431 -3,3 0,1.6568 1.3432,3 3,3 l 40,0 c 1.6569,0 3,-1.3432 3,-3 0,-1.6569 -1.3431,-3 -3,-3 z" style="text-indent:0;text-transform:none;direction:ltr;block-progression:tb;baseline-shift:baseline;color:#000000;enable-background:accumulate;" fill="#704214" fill-opacity="1" stroke="none" marker="none" visibility="visible" display="inline" overflow="visible"></path></g></svg>