<svg height='300px' width='300px'  fill="#704214" xmlns="http://www.w3.org/2000/svg" xmlns:xlink="http://www.w3.org/1999/xlink" xml:space="preserve" version="1.1" style="shape-rendering:geometricPrecision;text-rendering:geometricPrecision;image-rendering:optimizeQuality;" viewBox="0 0 446 449" x="0px" y="0px" fill-rule="evenodd" clip-rule="evenodd"><defs><style type="text/css">
   
    .fil0 {fill:#704214;fill-rule:nonzero}
   
  </style></defs><g><path class="fil0" d="M227 0c121,0 219,98 219,219 0,121 -98,219 -219,219 -36,0 -71,-9 -103,-25l-124 36 36 -123c-19,-32 -28,-69 -28,-107 0,-121 98,-219 219,-219zm0 29c-105,0 -190,85 -190,190 0,39 10,70 30,103l-24 84 84 -25c33,19 63,28 100,28 105,0 190,-85 190,-190 0,-105 -85,-190 -190,-190z"></path><path class="fil0" d="M152 167c-8,0 -14,-7 -14,-15 0,-8 6,-14 14,-14l149 0c8,0 15,6 15,14 0,8 -7,15 -15,15l-149 0z"></path><path class="fil0" d="M118 234c-8,0 -15,-7 -15,-15 0,-8 7,-14 15,-14l218 0c8,0 14,6 14,14 0,8 -6,15 -14,15l-218 0z"></path><path class="fil0" d="M152 301c-8,0 -14,-7 -14,-15 0,-8 6,-15 14,-15l149 0c8,0 15,7 15,15 0,8 -7,15 -15,15l-149 0z"></path></g></svg>