<svg height='300px' width='300px'  fill="#704214" xmlns="http://www.w3.org/2000/svg" xmlns:xlink="http://www.w3.org/1999/xlink" viewBox="0 0 90 90" version="1.1" x="0px" y="0px"><title>Graph</title><desc>Created with Sketch.</desc><g stroke="none" stroke-width="1" fill="none" fill-rule="evenodd"><path d="M78.9631128,27.1412359 C79.6540065,27.1412359 80.2124686,27.6938173 80.2124686,28.3774359 L80.211922,78.5275484 L83.7506442,78.5275999 C84.4402886,78.5275999 85,79.0814175 85,79.7637999 C85,80.4474186 84.4402886,81 83.7506442,81 L6.2493558,81 C5.5597114,81 5,80.4474186 5,79.7637999 C5,79.0814175 5.5597114,78.5275999 6.2493558,78.5275999 L9.80041541,78.5275484 L9.80127434,58.3441615 C9.80127434,57.6605429 10.3609857,57.1079615 11.0506301,57.1079615 L21.3478207,57.1079615 C22.0374651,57.1079615 22.5971765,57.6605429 22.5971765,58.3441615 L22.596786,78.5275484 L29.0071526,78.5275484 L29.0076211,41.3909139 C29.0076211,40.7085315 29.5660831,40.1547139 30.2569769,40.1547139 L40.552918,40.1547139 C41.2438118,40.1547139 41.8022738,40.7085315 41.8022738,41.3909139 L41.801493,78.5275484 L48.2118595,78.5275484 L48.2127184,49.3767663 C48.2127184,48.6943839 48.7711805,48.1405662 49.4620742,48.1405662 L59.7580154,48.1405662 C60.4489092,48.1405662 61.0073712,48.6943839 61.0073712,49.3767663 L61.007215,78.5275484 L67.4175816,78.5275484 L67.4178158,28.3774359 C67.4178158,27.6938173 67.9775272,27.1412359 68.6671716,27.1412359 L78.9631128,27.1412359 Z M20.0984649,59.5803616 L12.2999859,59.5803616 L12.2999859,78.5275999 L20.0984649,78.5275999 L20.0984649,59.5803616 Z M39.3035622,42.627114 L31.5063327,42.627114 L31.5063327,78.5275999 L39.3035622,78.5275999 L39.3035622,42.627114 Z M58.5086596,50.6129664 L50.71143,50.6129664 L50.71143,78.5275999 L58.5086596,78.5275999 L58.5086596,50.6129664 Z M77.713757,29.613636 L69.9165274,29.613636 L69.9165274,78.5275999 L77.713757,78.5275999 L77.713757,29.613636 Z M73.8157669,9 C77.2814799,9 80.1012759,11.7901035 80.1012759,15.2180863 C80.1012759,18.6485415 77.2814799,21.438645 73.8157669,21.438645 C72.6741933,21.438645 71.6027006,21.1359237 70.6789795,20.6073097 L59.6906651,32.5498519 C60.4485018,33.5770413 60.8961785,34.8416487 60.8961785,36.2075271 C60.8961785,39.636746 58.0763825,42.4268496 54.6106695,42.4268496 C51.1449565,42.4268496 48.3251605,39.636746 48.3251605,36.2075271 C48.3251605,35.765126 48.3721253,35.333349 48.4613823,34.9168223 L40.6889167,31.5905497 C39.5688902,33.3071935 37.6184183,34.445942 35.4043228,34.445942 C33.961651,34.445942 32.630904,33.9624712 31.5688871,33.1506837 L21.5780278,41.9426415 C22.1532986,42.881393 22.4847344,43.9819438 22.4847344,45.1576155 C22.4847344,48.5868345 19.6649384,51.376938 16.1992254,51.376938 C12.7335124,51.376938 9.91371636,48.5868345 9.91371636,45.1576155 C9.91371636,41.7283965 12.7335124,38.938293 16.1992254,38.938293 C17.5752715,38.938293 18.8494919,39.3781395 19.8858184,40.123197 L29.9313328,31.2826358 C29.4142247,30.3795446 29.1188137,29.3365599 29.1188137,28.2266195 C29.1188137,24.7986367 31.9386098,22.0085332 35.4043228,22.0085332 C38.8700358,22.0085332 41.6898318,24.7986367 41.6898318,28.2266195 C41.6898318,28.5875342 41.6585972,28.9413695 41.5986622,29.2856177 L49.4586549,32.6495033 C50.5961885,31.0424676 52.4815396,29.9894408 54.6106695,29.9894408 C55.7942591,29.9894408 56.9025143,30.3148557 57.8488463,30.8799594 L68.8054487,18.9703625 C68.0054509,17.9266621 67.5302578,16.6263304 67.5302578,15.2180863 C67.5302578,11.7901035 70.3500539,9 73.8157669,9 Z M16.1992254,41.4106931 C14.1115519,41.4106931 12.412428,43.090689 12.412428,45.1576155 C12.412428,47.2233058 14.1115519,48.9045379 16.1992254,48.9045379 C18.2881483,48.9045379 19.9860228,47.2233058 19.9860228,45.1576155 C19.9860228,43.090689 18.2881483,41.4106931 16.1992254,41.4106931 Z M54.6106695,32.4618409 C52.5217466,32.4618409 50.8238721,34.1418368 50.8238721,36.2075271 C50.8238721,38.2744536 52.5217466,39.9544495 54.6106695,39.9544495 C56.698343,39.9544495 58.3974669,38.2744536 58.3974669,36.2075271 C58.3974669,34.1418368 56.698343,32.4618409 54.6106695,32.4618409 Z M35.4043228,24.4809333 C33.3166492,24.4809333 31.6175253,26.1609292 31.6175253,28.2266195 C31.6175253,30.293546 33.3166492,31.9735419 35.4043228,31.9735419 C37.4932457,31.9735419 39.1911202,30.293546 39.1911202,28.2266195 C39.1911202,26.1609292 37.4932457,24.4809333 35.4043228,24.4809333 Z M73.8157669,11.4724001 C71.726844,11.4724001 70.0289694,13.1536322 70.0289694,15.2180863 C70.0289694,17.2850128 71.726844,18.9662449 73.8157669,18.9662449 C75.9034404,18.9662449 77.6025643,17.2850128 77.6025643,15.2180863 C77.6025643,13.1536322 75.9034404,11.4724001 73.8157669,11.4724001 Z" fill="#704214"></path></g></svg>