<svg height='300px' width='300px'  fill="#704214" xmlns="http://www.w3.org/2000/svg" viewBox="0 0 48 48" x="0px" y="0px"><title>medical result</title><g data-name="Layer 2"><path d="M39,7H32.5a2.49,2.49,0,0,0-2-1H27.87a4,4,0,0,0-7.74,0H17.5a2.49,2.49,0,0,0-2,1H9A1,1,0,0,0,8,8V43a1,1,0,0,0,1,1H39a1,1,0,0,0,1-1V8A1,1,0,0,0,39,7ZM35,20H25a1,1,0,0,1,0-2H35a1,1,0,0,1,0,2Zm1,3a1,1,0,0,1-1,1H25a1,1,0,0,1,0-2H35A1,1,0,0,1,36,23ZM22,18a5,5,0,1,1-5-5A5,5,0,0,1,22,18ZM12,27a1,1,0,0,1,1-1H35a1,1,0,0,1,1,1V39a1,1,0,0,1-1,1H13a1,1,0,0,1-1-1ZM35,16H25a1,1,0,0,1,0-2H35a1,1,0,0,1,0,2ZM17.5,8H21a1,1,0,0,0,1-1,2,2,0,0,1,4,0,1,1,0,0,0,1,1h3.5a.49.49,0,0,1,.47.35.37.37,0,0,1,0,.15.5.5,0,0,1-.5.5h-13a.5.5,0,0,1-.5-.5.38.38,0,0,1,0-.17A.47.47,0,0,1,17.5,8Z"></path><rect x="20" y="28" width="14" height="2"></rect><rect x="20" y="32" width="14" height="2"></rect><rect x="20" y="36" width="14" height="2"></rect><rect x="14" y="28" width="4" height="2"></rect><rect x="14" y="32" width="4" height="2"></rect><rect x="14" y="36" width="4" height="2"></rect><circle cx="17" cy="18" r="3"></circle></g></svg>