<svg height='300px' width='300px'  fill="#704214" xmlns="http://www.w3.org/2000/svg" xmlns:xlink="http://www.w3.org/1999/xlink" version="1.1" x="0px" y="0px" viewBox="0 0 50 50" enable-background="new 0 0 50 50" xml:space="preserve"><g><polygon fill-rule="evenodd" clip-rule="evenodd" points="34.584,13.221 14.634,13.221 14.634,14.662 16.353,16.071 33.648,16.071    30.172,18.921 19.828,18.921 23.303,21.772 26.697,21.772 12.566,33.362 12.566,50 15.416,50 15.416,48.18 35.366,48.18    35.366,45.33 15.416,45.33 15.416,42.48 35.366,42.48 35.366,39.629 15.416,39.629 15.416,36.779 35.366,36.779 35.366,35.338    33.647,33.929 16.352,33.929 19.828,31.079 30.172,31.079 26.697,28.228 23.303,28.228 37.434,16.638 37.434,0 34.584,0    34.584,1.82 14.634,1.82 14.634,4.67 34.584,4.67 34.584,7.52 14.634,7.52 14.634,10.371 34.584,10.371  "></polygon></g></svg>