<svg height='300px' width='300px'  fill="#704214" xmlns="http://www.w3.org/2000/svg" data-name="Layer 1" viewBox="0 0 100 100" x="0px" y="0px"><title>A45</title><path d="M8.51556,74.511l18.98236-18.9823a1.37524,1.37524,0,0,1,1.67328-.16919,3.99254,3.99254,0,0,0,5.85254-4.42639l14.0434,14.04345a3.99248,3.99248,0,0,0-4.42639,5.85254,1.37511,1.37511,0,0,1-.16919,1.67322L25.4892,91.48462A12.00217,12.00217,0,0,1,8.51556,74.511ZM85.42188,23.63452a1.06735,1.06735,0,0,0,.70812-.48389L94.84851,9.17737a1.00051,1.00051,0,0,0-.14136-1.23718L93.38361,6.6167,92.06006,5.29309a1.00068,1.00068,0,0,0-1.23718-.14136L76.84961,13.87024a1.06732,1.06732,0,0,0-.48389.70813l-.78784,4.186L55.12634,39.21594l5.658,5.65784L81.23578,24.42236Zm.10308,51.551,5.1117,5.11157A2.55889,2.55889,0,0,0,94.997,78.49023a16.7919,16.7919,0,0,0-21.9928-16.305L37.81506,26.99609A16.79193,16.79193,0,0,0,21.51007,5.0033a2.55888,2.55888,0,0,0-1.807,4.36023l5.1117,5.11181a7.51389,7.51389,0,0,1,.37341,10.39441,7.31112,7.31112,0,0,1-10.49591.1615L9.36188,19.70093a2.5477,2.5477,0,0,0-4.35492,1.667A16.80066,16.80066,0,0,0,27.00488,37.82336l35.172,35.172A16.80067,16.80067,0,0,0,78.63232,94.99329a2.54769,2.54769,0,0,0,1.66706-4.35486L74.969,85.308a7.31108,7.31108,0,0,1,.1615-10.496A7.51392,7.51392,0,0,1,85.525,75.18555Z"></path></svg>