<svg height='300px' width='300px'  fill="#dd1c1f" xmlns="http://www.w3.org/2000/svg" xmlns:xlink="http://www.w3.org/1999/xlink" version="1.1" x="0px" y="0px" viewBox="0 0 100 100" enable-background="new 0 0 100 100" xml:space="preserve"><path d="M83.5,83.5C102,65,102,35,83.5,16.5C65-2,35-2,16.5,16.5C-2,35-2,65,16.5,83.5C35,102,65,102,83.5,83.5z M44.7,27.1  c1.2-2.6,4-4,6.8-3.3c2.7,0.7,4.5,3.3,4.3,6.2c-0.1,1.9-0.2,3.7-0.3,5.6c-0.4,7-0.8,14-1.1,20.9c-0.1,2.3-2,4.1-4.3,4.1  c-2.4,0-4.2-1.8-4.3-4.3c-0.1-1.4-0.1-2.8-0.2-4.2c-0.3-4.5-0.5-9-0.8-13.6c-0.2-2.9-0.3-5.8-0.5-8.7C44.2,29,44.3,28,44.7,27.1z   M50,64.7c3.2,0,5.8,2.6,5.9,5.8c0,3.2-2.6,5.8-5.8,5.8c-3.1,0-5.8-2.6-5.8-5.7C44.2,67.4,46.8,64.7,50,64.7z"></path></svg>